<?xml version="1.0" encoding="utf-8"?>
<!-- Generator: Adobe Illustrator 21.1.0, SVG Export Plug-In . SVG Version: 6.00 Build 0)  -->
<svg version="1.1" id="Слой_1" xmlns="http://www.w3.org/2000/svg" xmlns:xlink="http://www.w3.org/1999/xlink" x="0px" y="0px"
	 viewBox="0 0 55 55" style="enable-background:new 0 0 55 55;" xml:space="preserve">
<style type="text/css">
	.st0{fill:#FF2D2D;}
</style>
<path class="st0" d="M27.5,0C12.3,0,0,12.3,0,27.5C0,42.7,12.3,55,27.5,55S55,42.7,55,27.5C55,12.3,42.7,0,27.5,0z M36.5,38.2H18.4
	v-4c5.1-3.8,8.5-6.5,10.2-8.2c1.7-1.6,2.5-3.1,2.5-4.6c0-1-0.4-1.8-1.2-2.3c-0.8-0.6-1.7-0.8-2.7-0.8c-2.5,0-4.7,0.9-6.4,2.8
	l-2.9-3.4c1.1-1.3,2.5-2.3,4.2-2.9c1.6-0.7,3.3-1,5.1-1c2.6,0,4.8,0.7,6.6,2.1c1.7,1.4,2.6,3.3,2.6,5.6c0,2-0.8,3.9-2.3,5.8
	s-4,4-7.3,6.4h9.8V38.2z"/>
</svg>
