<?xml version="1.0" encoding="utf-8"?>
<!-- Generator: Adobe Illustrator 21.1.0, SVG Export Plug-In . SVG Version: 6.00 Build 0)  -->
<svg version="1.1" id="Слой_1" xmlns="http://www.w3.org/2000/svg" xmlns:xlink="http://www.w3.org/1999/xlink" x="0px" y="0px"
	 viewBox="0 0 55 55" style="enable-background:new 0 0 55 55;" xml:space="preserve">
<style type="text/css">
	.st0{fill:#FF2D2D;}
</style>
<path class="st0" d="M27.5,0C12.3,0,0,12.3,0,27.5C0,42.7,12.3,55,27.5,55S55,42.7,55,27.5C55,12.3,42.7,0,27.5,0z M34,36.7
	c-1.7,1.3-4,2-6.9,2c-2.1,0-4-0.4-5.6-1.1c-1.6-0.7-2.9-1.6-3.9-2.8l2.7-3.4c0.8,0.8,1.8,1.5,3,2c1.2,0.5,2.4,0.7,3.6,0.7
	c1.4,0,2.6-0.3,3.3-0.8c0.8-0.6,1.2-1.3,1.2-2.2c0-1-0.4-1.7-1.2-2.1c-0.8-0.4-2-0.7-3.7-0.7c-1.5,0-2.5,0-3,0.1v-4.6
	c0.3,0,1.3,0,3,0c3,0,4.4-0.9,4.4-2.6c0-0.9-0.4-1.6-1.2-2.1c-0.8-0.5-1.9-0.7-3.2-0.7c-2.3,0-4.4,0.8-6.1,2.5L18,17.6
	c2.3-2.5,5.3-3.8,9.2-3.8c2.8,0,5,0.6,6.6,1.8c1.6,1.2,2.4,2.8,2.4,4.8c0,1.4-0.5,2.6-1.5,3.6c-1,1-2.3,1.6-3.7,1.9
	c1.4,0.1,2.7,0.7,3.9,1.7s1.7,2.4,1.7,4C36.6,33.6,35.7,35.3,34,36.7z"/>
</svg>
