<?xml version="1.0" encoding="utf-8"?>
<!-- Generator: Adobe Illustrator 21.1.0, SVG Export Plug-In . SVG Version: 6.00 Build 0)  -->
<svg version="1.1" id="Слой_1" xmlns="http://www.w3.org/2000/svg" xmlns:xlink="http://www.w3.org/1999/xlink" x="0px" y="0px"
	 viewBox="0 0 151 151" style="enable-background:new 0 0 151 151;" xml:space="preserve">
<style type="text/css">
	.st0{fill:#F3F3F3;}
	.st1{fill:#1D1D1D;}
</style>
<circle class="st0" cx="75.3" cy="75.6" r="64"/>
<g>
	<path class="st1" d="M106.9,56.2c2.7-5.6,4.8-9.5,6.4-11.8c3.9-6,8.2-9.6,12.5-10.9c1.9-0.6,3.3-0.5,4.3,0c0.8,0.4,1.4,1.4,1.9,2.9
		c0.6,2.1,0.4,4.6-0.6,7.7c-1,3.6-1.3,6-0.9,7.2c0.5,1.6,2.6,2.5,6.3,2.8c2.7,0.3,4.3,1.1,4.8,2.8c0.5,1.6-0.2,3.2-2.1,4.9
		c-2.6,2.3-3.7,4.1-3.3,5.3c0.3,0.9,2.1,2.1,5.6,3.8c2.9,1.4,4.5,2.9,4.9,4.1c0.3,1,0.2,2.1-0.7,3c-0.9,0.9-1.9,1.4-3.2,1.8
		c-3.6,1.1-10.1,0.2-19.6-2.8l-10.8-3.7c0.1-1.3-0.1-2.9-0.3-4.7l8.7,0.9c0.3,0.1,0.5,0,0.9-0.3c0.4-0.3,0.4-0.4,0.4-0.8
		s0.2-0.5-0.1-0.9c-0.2-0.3-0.6-0.3-0.9-0.4l-9.3-1l-1-3.8l9.4-5.2c0.3-0.1,0.6-0.3,0.6-0.7c0.2-0.4,0.1-0.7,0-1
		c-0.1-0.3-0.5-0.5-0.8-0.6c-0.3-0.1-0.5,0-0.9,0.1l-9.2,5.2C108.3,58.4,107.5,57,106.9,56.2z"/>
	<path class="st1" d="M76.4,63.7c0.3,1-0.3,3.2-2.2,6.2c-2,3.6-2.6,6.4-2,8.5c0.6,1.8,2.8,3.2,6.8,4.6c3.3,1.1,5.1,2.2,5.5,3.4
		c0.1,0.8-0.8,2.9-2.6,5.9c-2.4,3.9-3.4,6.5-2.9,8.1c0.4,1.3,1.7,2.9,3.6,4.6c-4.3,1.3-8.4,2.1-12.1,2.1c-1.6-1.3-2.4-2.5-2.7-3.3
		c-0.3-0.9,0.6-3,2.5-6.2c2.4-3.9,3.4-6.5,3-7.8c-0.6-1.9-2.9-3.5-7-5.1c-3.3-1-5.1-2-5.3-2.9c-0.5-1.5,0.2-3.7,1.9-6.7
		c2.2-3.6,3-6.3,2.4-8.1s-2.2-3.9-5-6.2c-2.5-2.2-4-4-4.5-5.5s0-3.8,1.4-6.5c3.6-1.8,7.1-3.2,10.6-3.8c-1.1,2.7-1.4,5-0.8,6.8
		c0.6,2.1,2.3,4.2,5,6.7C74.6,60.8,76.1,62.5,76.4,63.7z"/>
	<path class="st1" d="M9.4,81.8c-2.6-2-4.2-4-4.8-6.1c-0.5-1.5-0.5-2.6-0.1-3.4c0.5-1.1,1.7-2,3.5-2.6c4.5-1.4,10-0.6,16.5,1.9
		c2.3,0.9,5.8,2.8,10.6,5.6c0,1.6,0.1,3.4,0.3,5.3l-9.2,0.9c-0.9,0.1-1.3,0.6-1.2,1.4c0.1,0.9,0.6,1.3,1.3,1.1l9.4-0.8l1.5,4.3
		l-5.9,5.3c-0.3,0.2-0.4,0.4-0.6,0.8c-0.1,0.3,0.2,0.6,0.3,0.9c0.2,0.3,0.6,0.5,1,0.5c0.3,0.1,0.6-0.2,0.9-0.4l5.4-4.8
		c0.8,1.6,1.7,2.9,2.6,4.3l-5.9,8c-6.1,7.9-10.9,12.4-14.5,13.5c-1.3,0.4-2.6,0.5-3.7,0.2c-1.2-0.1-1.9-0.9-2.2-1.9
		c-0.4-1.2,0.1-3.3,1.7-6.1c1.9-3.5,2.7-5.6,2.5-6.3c-0.4-1.2-2.3-2.1-5.7-2.5c-2.6-0.4-4-1.4-4.5-2.9s0.3-3.2,2.2-5
		c2.9-2.4,4.1-4.4,3.6-5.9C13.9,85.8,12.2,84.2,9.4,81.8z"/>
	<path class="st1" d="M104.5,57c-2.9-4.2-7.2-7.4-12.7-9.8c-4.5-1.9-9.1-2.9-13.9-3.1c-0.6,1.8-1,3.3-0.9,4.4c0.1,0.3,0,0.6-0.2,1
		c-0.3,0.2-0.5,0.5-0.9,0.4c-0.3,0.1-0.7-0.1-0.9-0.4c-0.2-0.3-0.3-0.4-0.4-0.9c-0.2-1.2-0.1-2.9,0.7-4.8l-4.4,0.5
		c-1.4,2.9-1.8,5.2-1.3,6.8c0.5,1.6,1.9,3.5,4.2,5.7c2.9,2.4,4.5,4.4,5,6.2c0.6,1.8-0.2,4.5-2.3,8.1c-1.7,3-2.3,5.2-1.9,6.7
		c0.3,0.9,2.1,2,5.2,3c4.1,1.5,6.4,3.1,7,5.1c0.4,1.3-0.6,4-3,7.8c-2,3.2-2.8,5.1-2.5,6.2c0.3,1,1.3,2.2,2.9,3.7l1.1,0.8l4.2-1.9
		c-1.6-1.5-2.7-2.8-3-4c-0.1-0.3,0-0.6,0-1c0.1-0.8,0.6-1.2,1.3-1.1c0.7,0.3,1.2,0.6,1.1,1.3c0.5,1,1.5,2.2,3,3.5
		c5.3-3,9.5-7,12.8-12.3c1.4-2.2,2.5-4.6,3.4-7c0.8-2.6,1.4-5.2,1.5-7.8l0,0c0.1-2.2-0.1-4.4-0.6-6.6l-1.6-5.1
		C106.7,60.4,105.7,58.6,104.5,57z M81.7,73.7c-0.3,0.1-0.4,0.1-0.6,0c-0.3-0.1-0.6-0.3-0.8-0.4c-0.2-0.3-0.2-0.6-0.1-0.9
		c0.3-1.2,1-2.8,1.9-4.4c1.7-3,2.4-5,2.1-6.1c-0.4-1.3-1.8-3.1-4.2-5.2L79,55.7c-0.5-0.7-0.5-1.2,0.1-1.8c0.7-0.5,1.2-0.5,1.6,0
		l0.7,0.8c2.9,2.4,4.5,4.5,5.1,6.3c0.5,1.6-0.3,4.4-2.5,8c-0.8,1.2-1.3,2.5-1.8,3.8C82.5,73.3,82.3,73.5,81.7,73.7z M91.6,91.6
		c-0.3,0.2-0.4,0.3-0.7,0.4c-0.4,0.1-0.8,0.1-1-0.2c-0.6-0.5-0.8-1.1-0.4-1.7c2-3.1,2.8-5.1,2.6-5.9C91.8,83,90,82,86.9,81L85,80.4
		c-0.8-0.4-0.9-0.9-0.7-1.6c0.4-0.8,0.9-0.9,1.6-0.7l1.6,0.5c4,1.4,6.4,3.1,6.9,4.9C94.9,85.2,94,87.8,91.6,91.6z"/>
	<path class="st1" d="M53.8,50.8c-0.6,2.2-0.7,4-0.3,5.3c0.6,1.9,2.3,4.2,5.2,6.6c2.5,2.2,3.8,3.9,4.2,5.2c0.3,1-0.3,3.2-2.2,6.2
		c-2,3.6-2.6,6.4-2,8.5c0.6,1.8,2.8,3.2,6.8,4.6c3.3,1.1,5.1,2.2,5.5,3.4c0.1,0.8-0.8,2.9-2.6,5.9c-2.4,3.9-3.4,6.5-2.9,8.1
		c0.3,0.9,0.7,1.8,1.4,2.5c-4.1-0.4-8-1.3-11.7-2.9c-5.1-2.2-9-5.1-11.8-8.8l0,0c-1.2-1.6-2.4-3.5-3.5-6l-1.8-5.7
		c-0.3-2.5-0.5-4.9-0.5-6.9c0.2-4.8,1.8-9.6,4.8-14.3C45.4,57.7,49.1,53.9,53.8,50.8z"/>
</g>
</svg>
