<?xml version="1.0" encoding="utf-8"?>
<!-- Generator: Adobe Illustrator 21.1.0, SVG Export Plug-In . SVG Version: 6.00 Build 0)  -->
<svg version="1.1" id="Слой_1" xmlns="http://www.w3.org/2000/svg" xmlns:xlink="http://www.w3.org/1999/xlink" x="0px" y="0px"
	 viewBox="0 0 151 151" style="enable-background:new 0 0 151 151;" xml:space="preserve">
<style type="text/css">
	.st0{fill:#F3F3F3;}
	.st1{fill:#1D1D1D;}
</style>
<circle class="st0" cx="75.3" cy="75.6" r="64"/>
<g>
	<path class="st1" d="M63.2,102.4l53-53c2.7-2.7,5.8-6.9,7.5-10.9c1.6-3.6,3.1-8.4,0.7-10.8c-2.5-2.5-7-0.9-10.8,0.8
		c-4,1.7-8.2,4.9-10.8,7.6l-53,53c-0.1,0.1-3.4,4.5-5.9,9.5c-4.9,9.3-4.3,11.8-3.2,13c1.2,1.2,3.6,1.7,13-3.2
		C58.6,105.7,63.1,102.5,63.2,102.4z M57.9,96.8l-12.5,10.9c-0.3,0.3-0.7,0.3-1,0c-0.3-0.3-0.2-0.6,0.1-0.9l10.8-12.6L57.9,96.8z"/>
	<ellipse transform="matrix(0.7071 -0.7071 0.7071 0.7071 -8.6527 65.8853)" class="st1" cx="75.2" cy="43.4" rx="1" ry="3.1"/>
	<ellipse transform="matrix(0.7071 -0.7071 0.7071 0.7071 -30.8249 105.2931)" class="st1" cx="111.7" cy="89.9" rx="1" ry="3.1"/>
	<ellipse transform="matrix(0.7071 -0.7071 0.7071 0.7071 -22.6908 99.7763)" class="st1" cx="109.1" cy="77.3" rx="1" ry="3.1"/>
	<path class="st1" d="M62.1,105.4c-1.8,1.1-4.8,2.9-8.1,4.6c-1.9,1-3.5,1.7-4.9,2.4l6.5,10.9c0.2,0.4,0.5,0.5,1,0.6
		c0.4,0,0.7-0.3,1-0.6l4.6-4.6c0.3-0.3,0.5-0.5,0.5-0.9L62.1,105.4z"/>
	<path class="st1" d="M104.6,125L104.6,125L104.6,125L104.6,125z"/>
	<ellipse transform="matrix(0.7071 -0.7071 0.7071 0.7071 -10.5034 56.2327)" class="st1" cx="62.6" cy="40.8" rx="1" ry="3.1"/>
	<path class="st1" d="M89.4,78.1l-6.7,6.7l5.2,10.4c-0.6,0.8-1,1.9-0.7,2.4c0.4,0.4,1.2,0.2,1.8-0.1l3.9,8c-0.6,0.8-1.2,1.9-0.9,2.4
		c0.4,0.4,1.2,0.2,1.9-0.2l8.4,17.1c0.1,0.3,0.2,0.4,0.5,0.5l0.6-7.7L89.4,78.1z"/>
	<path class="st1" d="M112.8,115.8l-3.2-20.3c1.2-0.9,2.6-2,3.6-3c-0.9-0.3-1.7-1-2.6-1.8c-0.8-0.8-1.4-1.6-1.8-2.6
		c-0.1,0.1-0.2,0.2-0.3,0.3l-1-5.8c1.1-0.9,2.1-1.7,3-2.6c-0.9-0.3-1.8-1.1-2.6-1.8c-0.5-0.5-1.1-1.2-1.4-1.8l-2.2-13.2L90.9,76.7
		l14.5,40.4c0.1,0.1,0,0.2-0.1,0.3l-0.9,7.2l8-8C112.6,116.4,112.9,116.3,112.8,115.8z"/>
	<path class="st1" d="M35.2,47.3l39.9,14.4l13.4-13.4L76,46.1c-0.6-0.4-1.2-0.9-1.8-1.4c-0.8-0.8-1.4-1.8-1.8-2.6
		c-0.9,0.9-1.8,1.8-2.7,2.9l-5.6-1c0.1-0.1,0.2-0.2,0.3-0.3c-0.9-0.3-1.8-1.1-2.6-1.8c-0.8-0.8-1.4-1.8-1.8-2.6c-1,1-2,2.2-3.1,3.5
		l-20.4-3.3c-0.5-0.1-0.8,0.2-1.1,0.5l-8,8l-0.2,0l7.6-0.7C35,47.3,35.2,47.3,35.2,47.3z"/>
	<path class="st1" d="M73.9,63l-39-14l-7.7,0.6c0.2,0.2,0.3,0.3,0.4,0.4l17.1,8.4c-0.3,0.7-0.6,1.5-0.2,1.9c0.4,0.4,1.5-0.2,2.4-0.9
		l8,3.9c-0.3,0.7-0.5,1.4-0.1,1.8c0.4,0.4,1.6,0.1,2.5-0.6l10,5L73.9,63z"/>
	<path class="st1" d="M46.8,89.9l-13.2-1.1c-0.4,0-1,0-1.2,0.2l-4.6,4.6c-0.3,0.3-0.3,0.9-0.3,1.2c0,0.4,0.3,0.9,0.7,1.1l11.5,6.9
		c0.6-1.3,1.3-2.9,2.3-4.8C43.9,94.7,45.7,91.5,46.8,89.9z"/>
</g>
</svg>
