<svg xmlns="http://www.w3.org/2000/svg" width="34" height="18.81" viewBox="0 0 34 18.81">
  <defs>
    <style>
      .cls-1 {
        fill: #fff;
        fill-rule: evenodd;
      }
    </style>
  </defs>
  <path id="VK_копия" data-name="VK копия" class="cls-1" d="M955.755,3308.13c-0.423-.34-2.055-0.33-3.673-0.32a22.711,22.711,0,0,0-3.674.16c-0.352.13-1.143,1.93-2.17,3.79-1.163,2.11-2.6,4.13-3.508,4.11-1.175-.02-0.9-3.47-0.835-6,0.047-1.68-.241-2.21-0.5-2.38a11.293,11.293,0,0,0-2.337-.78s-5.112-.37-5.845,1.73c0.973,0.13,2.654-.17,2,6.33-0.031.31-.783,2.99-3.173-0.64-0.589-.89-2.884-6.3-3.672-6.32-2.652-.07-5.251-0.17-6.179.32-0.846.44,1.145,4.18,4.509,9.17,2.749,4.07,5.663,7.26,10.686,8.06a13.1,13.1,0,0,0,4.174-.16c0.533-.25-0.114-3.78,1.672-4.11,0.8-.15,3.848,3.67,5.008,4.11a13,13,0,0,0,3.841.32c1.715-.06,3.651.14,3.84-0.95,0.42-2.44-5.175-5.61-5.343-7.12-0.123-1.08,2.047-3.07,3.172-4.58C955.123,3311.03,956.61,3308.81,955.755,3308.13Z" transform="translate(-922 -3306.69)"/>
</svg>
