<?xml version="1.0" encoding="utf-8"?>
<!-- Generator: Adobe Illustrator 21.1.0, SVG Export Plug-In . SVG Version: 6.00 Build 0)  -->
<svg version="1.1" id="Слой_1" xmlns="http://www.w3.org/2000/svg" xmlns:xlink="http://www.w3.org/1999/xlink" x="0px" y="0px"
	 viewBox="0 0 55 55" style="enable-background:new 0 0 55 55;" xml:space="preserve">
<style type="text/css">
	.st0{fill:#FF2D2D;}
</style>
<path class="st0" d="M27.5,0C12.3,0,0,12.3,0,27.5C0,42.7,12.3,55,27.5,55S55,42.7,55,27.5C55,12.3,42.7,0,27.5,0z M34.6,36.4
	c-1.8,1.5-4.1,2.3-7,2.3c-4,0-7-1.2-9.3-3.6l2.8-3.6c1.7,1.8,3.8,2.6,6.4,2.6c1.4,0,2.5-0.3,3.3-1c0.8-0.7,1.2-1.5,1.2-2.5
	c0-1.1-0.4-1.9-1.2-2.6c-0.8-0.6-1.8-1-3.2-1c-2,0-3.7,0.6-5,1.9L19.1,28V14.2h16.5v4.5H24.2v5.9c1.3-1.3,3.1-2,5.3-2
	c2.1,0,4,0.7,5.5,2.1c1.5,1.4,2.3,3.3,2.3,5.7C37.2,32.8,36.3,34.9,34.6,36.4z"/>
</svg>
