<?xml version="1.0" encoding="utf-8"?>
<!-- Generator: Adobe Illustrator 21.1.0, SVG Export Plug-In . SVG Version: 6.00 Build 0)  -->
<svg version="1.1" id="Слой_1" xmlns="http://www.w3.org/2000/svg" xmlns:xlink="http://www.w3.org/1999/xlink" x="0px" y="0px"
	 viewBox="0 0 151 151" style="enable-background:new 0 0 151 151;" xml:space="preserve">
<style type="text/css">
	.st0{fill:#F3F3F3;}
	.st1{fill:#1D1D1D;}
</style>
<circle class="st0" cx="75.3" cy="75.6" r="64"/>
<g>
	<g>
		<path class="st1" d="M90.6,56c0,0.2-0.2,0.4-0.4,0.4l0,0c-3.3,0-5.9,0-8.6,0c-3.9,0.2-7.8,0.6-11.6,1c-1.6,0.2-3.1,0.4-4.7,0.4
			c-0.6,0-1.2,0.2-1.8,0.2c-0.4-0.4-0.6-0.6-1-0.8c-0.2-1.2-0.2-2.7,0-4.1c1.2-7.8,8.4-13.1,16.1-12C85.7,42.3,90.8,48.7,90.6,56z"
			/>
		<path class="st1" d="M62.3,106L62.3,106c-2,0-3.9-1.6-3.9-3.9l0,0c0-2,1.6-3.9,3.9-3.9l0,0c2,0,3.9,1.6,3.9,3.9l0,0
			C66,104.1,64.3,106,62.3,106z"/>
	</g>
	<g>
		<path class="st1" d="M108.4,62.5c-2.7,0.2-5.3,0.6-8,0.6c-3.7,0-7.1-0.4-10.8-0.4c-0.4,0-0.8,0-1.2,0c-3.7,0-7.1,0.2-10.8,0.6
			c-4.1,0.4-8.2,0.6-12.2,1.2c-0.4,0-0.8,0.2-1.4,0.2C57,65.6,50,66.4,43.1,66.4c-3.3,0-6.5,0-9.8,0c0,0,0,0-0.2,0
			c-1.2,10.4-9,12.2-11.2,12.6c0,4.3,0.2,8.4,0.2,12.6c2.4,0.4,10.4,2.7,11.2,13.9v0.2c0.6,0,1.2,0,1.6,0c3.5,0,6.7,0,10.2,0
			c0.2,0,0.8,0.2,0.8,0.2c0,1,0.2,2,0,2.9c0,0.2-1,0.4-1.6,0.4c-8,0.2-15.7,0-23.7-0.8c-1.2-0.2-2-0.8-2-2c0-1.8,0-3.7,0-5.3
			c0.2-8.6,0.2-17.1,0-25.5c0-3.9-0.2-7.5-0.2-11.2c0-2,0.6-2.7,2.7-2.4c0.8,0,1.8,0.2,2.7,0.2c5.5,0.2,11,0.6,16.5,0.6
			c3.9,0,8-0.2,11.8-0.6c3.9-0.2,7.5-0.8,11.4-1.2c0.8,0,1.4-0.2,2.2-0.2c5.3-0.6,10.6-1.2,16.1-1.4c2.9-0.2,5.5-0.2,8.4,0
			c3.3,0,6.3,0.2,9.6,0.2c2.2,0,4.7,0.4,6.9,0.8C107.6,60.5,108.4,60.9,108.4,62.5z"/>
		<path class="st1" d="M130.4,113.5c-2,2.2-4.7,3.5-7.8,3.9c-6.7,1.2-13.5,2.4-20.2,3.7c-8.2,1.4-16.3,2.9-24.5,4.3
			c-8.2,1.4-16.3,2.9-24.5,4.3c-1.4,0.2-2.4-0.2-3.1-1.2c-0.2-0.6-0.4-1.4-0.4-2c-0.2-4.9-0.2-9.8-0.4-14.7l13.9-2
			c4.3-0.6,7.1-4.5,6.5-8.8v-0.4c-0.6-4.1-4.5-7.1-8.8-6.5l-12,1.8c0-0.4,0-0.8,0-1.2C49,89.4,49,84.3,48.8,79.3
			c0-2,0.6-2.9,2.7-3.3c9.4-1.6,19-3.5,28.4-5.1c13.1-2.2,26.3-4.7,39.4-7.1c2-0.4,4.1-1,5.7-2.4c1.4-1.2,1.4-2.9-0.2-3.9
			c-1-0.8-2.2-1.2-3.7-2c-0.4,1.4-0.6,2.7-0.8,3.7c-0.2,0.4-0.6,0.8-1,1c-0.6,0.2-1.2,0.2-1.8,0.4c-0.8,0.2-1.2,0-1-1
			c0.4-1.4,0.6-3.1,1-4.5c-2-0.8-9.8-4.5-8.2-15.9l0,0v-0.2l0,0c-8.6-2.2-17.1-3.5-25.9-4.5c-5.3-0.6-10.4-1-15.7-1.8
			c-5.9-0.8-11.8-2.2-17.7-3.7c-3.5,10.4-12,10.4-14.1,10.2c-0.4,1.8-0.8,3.9-1.2,5.7c-0.8,4.1-1.6,8.2-2.7,12.2
			c0,0.4-0.4,1-0.8,1.2c-2.2,0.4-3.1-0.2-2.4-2.4v-0.2c2.2-10.6,4.5-21.4,6.7-32c0.4-1.8,1.2-2.4,3.1-1.8c3.3,1,6.3,2,9.6,2.9
			c9.4,2.7,19,4.3,28.6,5.5c6.9,0.8,14.1,1.6,21,2.7c8.4,1.2,16.3,3.5,24.3,6.5c1.4,0.6,1.8,1.2,1.4,2.9c-0.6,2.7-1.2,5.5-1.6,8.2
			c0.6,0.2,1.2,0.4,1.8,0.6c5.1,1.8,6.9,4.5,7.1,10c0.4,15.5,0.8,31,1.2,46.5C132.7,110.1,131.8,111.9,130.4,113.5z"/>
	</g>
</g>
</svg>
