<?xml version="1.0" encoding="utf-8"?>
<!-- Generator: Adobe Illustrator 21.1.0, SVG Export Plug-In . SVG Version: 6.00 Build 0)  -->
<svg version="1.1" id="Слой_1" xmlns="http://www.w3.org/2000/svg" xmlns:xlink="http://www.w3.org/1999/xlink" x="0px" y="0px"
	 viewBox="0 0 151 151" style="enable-background:new 0 0 151 151;" xml:space="preserve">
<style type="text/css">
	.st0{fill:#F3F3F3;}
	.st1{fill:#1D1D1D;}
</style>
<circle class="st0" cx="75.3" cy="75.6" r="64"/>
<g>
	<g>
		<path class="st1" d="M71.6,60.1h21.9c1.1,0,2.2,1.1,2.2,2.2v48.3c0,1.3-1.1,2.2-2.2,2.2H71.6c-1.1,0-2.2-0.9-2.2-2.2V62.3
			C69.4,61,70.2,60.1,71.6,60.1z"/>
	</g>
	<g>
		<path class="st1" d="M128,119.4c0,1.3-1.1,2.2-2.2,2.2H33.6v4.4c0,1.3-1.1,2.2-2.2,2.2s-2.2-0.9-2.2-2.2v-4.4h-4.4
			c-1.1,0-2.2-0.9-2.2-2.2c0-1.1,1.1-2.2,2.2-2.2h4.4V25c0-1.1,1.1-2.2,2.2-2.2s2.2,1.1,2.2,2.2v92.2h92.2
			C126.9,117.2,128,118.1,128,119.4z"/>
	</g>
	<g>
		<path class="st1" d="M40.8,82.7h21.9c1.1,0,2.2,0.9,2.2,2.2v25.5c0,1.3-1.1,2.2-2.2,2.2H40.8c-1.1,0-2.2-0.9-2.2-2.2V84.9
			C38.6,83.8,39.5,82.7,40.8,82.7z"/>
	</g>
	<g>
		<path class="st1" d="M124.2,112.8h-21.9c-1.1,0-2.2-0.9-2.2-2.2v-68c0-1.1,1.1-2.2,2.2-2.2h21.9c1.1,0,2.2,1.1,2.2,2.2v68
			C126.4,111.7,125.3,112.8,124.2,112.8z"/>
	</g>
</g>
</svg>
