<?xml version="1.0" encoding="utf-8"?>
<!-- Generator: Adobe Illustrator 21.1.0, SVG Export Plug-In . SVG Version: 6.00 Build 0)  -->
<svg version="1.1" id="Слой_1" xmlns="http://www.w3.org/2000/svg" xmlns:xlink="http://www.w3.org/1999/xlink" x="0px" y="0px"
	 viewBox="0 0 151 151" style="enable-background:new 0 0 151 151;" xml:space="preserve">
<style type="text/css">
	.st0{fill:#F3F3F3;}
	.st1{fill:#1D1D1D;}
</style>
<circle class="st0" cx="75.3" cy="75.6" r="64"/>
<g>
	<g>
		<g>
			<g>
				
					<rect x="49.4" y="87.6" transform="matrix(0.7071 -0.7071 0.7071 0.7071 -55.391 65.5731)" class="st1" width="4.2" height="24"/>
				<path class="st1" d="M49.2,101.9c-16.8-6.2-21.5,21.3-21.5,21.3S55.4,118.8,49.2,101.9z M36.3,114.8c0,0,2.2-13.3,10.4-10.2
					C49.5,112.6,36.3,114.8,36.3,114.8z"/>
			</g>
			<path class="st1" d="M123.3,27.8c0,0-35.1-3.5-77.4,60.5l17,17C126.8,62.9,123.3,27.8,123.3,27.8z M87.7,64
				c-3.8-3.8-3.8-10,0-13.8c3.8-3.8,10-3.8,13.8,0c3.8,3.8,3.8,10,0,13.8S91.6,67.8,87.7,64z"/>
			
				<ellipse transform="matrix(0.7071 -0.7071 0.7071 0.7071 -12.6698 83.6416)" class="st1" cx="94.6" cy="57.1" rx="7.5" ry="7.5"/>
		</g>
		<g>
			<path class="st1" d="M84.7,91.1c-5.4,4.6-11.7,9.1-18.6,13.9l2.3,17.8C82,114.1,84.3,98.4,84.7,91.1z"/>
		</g>
		<g>
			<path class="st1" d="M60.1,66.4c-7.3,0.3-23,2.7-31.7,16.2L46.2,85C50.9,78.1,55.6,72,60.1,66.4z"/>
		</g>
	</g>
</g>
</svg>
