<?xml version="1.0" encoding="utf-8"?>
<!-- Generator: Adobe Illustrator 21.1.0, SVG Export Plug-In . SVG Version: 6.00 Build 0)  -->
<svg version="1.1" id="Слой_1" xmlns="http://www.w3.org/2000/svg" xmlns:xlink="http://www.w3.org/1999/xlink" x="0px" y="0px"
	 viewBox="0 0 953.1 206.3" style="enable-background:new 0 0 953.1 206.3;" xml:space="preserve">
<style type="text/css">
	.st0{fill:#141414;}
</style>
<g>
	<path id="Фигура_2" class="st0" d="M26.6,191.4h39.7c0,0,6.9-22.2,116.8-28c0,0,14.2,27.9,14,28h39.7L141,9.7h-39.7L113,33
		L26.6,191.4z M89.6,149.5c0,0,42-81.5,42-81.5l32.7,62.9C164.4,130.8,101.2,134.6,89.6,149.5z"/>
	<path id="Фигура_3" class="st0" d="M417,58.3c0,0-16-14-46.7-14c-36.5,0.1-67.7,21-67.7,58.2s33.7,58.2,67.7,58.2
		s51.4-21,51.4-21l23.4,32.6c0,0-31.2,25.6-74.7,25.6s-105.1-30.8-105.1-95.5S317.1,7,370.3,7s72.4,23.3,72.4,23.3L417,58.3z"/>
	<path id="Фигура_5" class="st0" d="M782.7,191.1h147.1v-34.9H815.4v-39.6h84.1V81.6h-84.1V49h107.4V14H782.7L782.7,191.1
		L782.7,191.1z"/>
	<path id="Фигура_4" class="st0" d="M500.7,42v149.1h39.7V88.6l63,81.5l60.7-81.5v102.5h39.7V42l18.7-28h-44.4l-74.7,97.8
		L526.4,14h-44.4L500.7,42z"/>
</g>
</svg>
