<?xml version="1.0" encoding="utf-8"?>
<!-- Generator: Adobe Illustrator 21.1.0, SVG Export Plug-In . SVG Version: 6.00 Build 0)  -->
<svg version="1.1" id="Слой_1" xmlns="http://www.w3.org/2000/svg" xmlns:xlink="http://www.w3.org/1999/xlink" x="0px" y="0px"
	 viewBox="0 0 100 125" style="enable-background:new 0 0 100 125;" xml:space="preserve">
<g>
	<path d="M57,77.2V22c0-2.8-0.6-6.6-1.8-9.6c-1-2.7-2.8-6-5.3-6c-2.6,0-4.1,3.2-5.2,6c-1.2,3-1.7,6.8-1.7,9.6v55.2
		c0,0.1,0.6,4.1,1.9,8c2.3,7.4,3.9,8.4,5.1,8.4c1.2,0,2.8-1,5.1-8.4C56.3,81.3,57,77.3,57,77.2z M51.3,77l-0.8,12.2
		c0,0.3-0.2,0.5-0.5,0.5s-0.4-0.2-0.4-0.5L48.7,77H51.3z"/>
	<ellipse cx="32.5" cy="40.2" rx="2.3" ry="0.7"/>
	<ellipse cx="75.7" cy="45.4" rx="2.3" ry="0.7"/>
	<ellipse cx="67.8" cy="40.2" rx="2.3" ry="0.7"/>
	<path d="M58,79.3c-0.4,1.5-1,4-1.8,6.6c-0.5,1.5-0.9,2.7-1.3,3.8L64,92c0.3,0.1,0.5,0,0.8-0.2C65,91.6,65,91.3,65,91v-4.8
		c0-0.3,0-0.5-0.2-0.7L58,79.3z"/>
	<path d="M90.3,67.4L90.3,67.4L90.3,67.4L90.3,67.4z"/>
	<ellipse cx="24.6" cy="45.4" rx="2.3" ry="0.7"/>
	<path d="M58,50.9v7l8.1,2.7c0.1,0.7,0.5,1.5,0.9,1.6c0.4,0,0.7-0.5,0.9-1l6.2,2.1c0.1,0.7,0.4,1.6,0.8,1.7c0.4,0,0.7-0.5,0.9-1.1
		l13.3,4.5c0.2,0.1,0.3,0.1,0.5,0l-3.7-4.3L58,50.9z"/>
	<path d="M89.8,58.3l-12.2-8.9c0.2-1.1,0.3-2.4,0.3-3.4c-0.6,0.3-1.4,0.4-2.3,0.4c-0.8,0-1.6-0.1-2.3-0.4c0,0.1,0,0.2,0,0.3
		l-3.5-2.5c0.1-1,0.2-2,0.2-2.9c-0.6,0.3-1.5,0.4-2.3,0.4c-0.5,0-1.2-0.1-1.7-0.2l-8-5.7v14l28.6,13.5c0.1,0,0.1,0.1,0.1,0.2
		l3.3,4.2V59C90,58.8,90.1,58.5,89.8,58.3z"/>
	<path d="M13.7,63.1L42,49.8v-14l-7.7,5.4c-0.5,0.1-1.1,0.2-1.7,0.2c-0.8,0-1.7-0.2-2.3-0.4c0,0.9,0,1.9,0.1,2.9L27,46.3
		c0-0.1,0-0.2,0-0.3c-0.6,0.3-1.5,0.4-2.3,0.4S23,46.2,22.4,46c0,1,0.1,2.2,0.2,3.4l-12.3,8.9C10,58.5,10,58.8,10,59.1v8.3l-0.1,0.1
		l3.6-4.3C13.6,63.2,13.7,63.1,13.7,63.1z"/>
	<path d="M42,51.1l-27.6,13l-3.7,4.3c0.2,0,0.3,0,0.4,0l13.3-4.5c0.2,0.5,0.5,1.1,0.9,1.1s0.7-0.9,0.8-1.7l6.2-2.1
		c0.2,0.5,0.5,1,0.9,1s0.9-0.8,1-1.6L42,58V51.1z"/>
	<path d="M41.9,79.2l-7.4,6.3C34.3,85.7,34,86,34,86.2V91c0,0.3,0.3,0.6,0.5,0.8c0.2,0.2,0.6,0.3,0.9,0.2l9.6-2.4
		c-0.4-1-0.8-2.2-1.3-3.7C42.9,83.2,42.2,80.6,41.9,79.2z"/>
</g>
</svg>
