<?xml version="1.0" encoding="utf-8"?>
<!-- Generator: Adobe Illustrator 21.1.0, SVG Export Plug-In . SVG Version: 6.00 Build 0)  -->
<svg version="1.1" id="Слой_1" xmlns="http://www.w3.org/2000/svg" xmlns:xlink="http://www.w3.org/1999/xlink" x="0px" y="0px"
	 viewBox="0 0 159.5 92" style="enable-background:new 0 0 159.5 92;" xml:space="preserve">
<path d="M82.1,22.1c-1.6,0.7-3.3,0.6-4.9-0.1c0.2-3,0.6-6,1.7-8.9c0.9-2.7,2.3-5,4.4-7c0.8-0.7,1.6-1.3,2.6-1.8
	c0.4-0.2,0.9-0.5,1.3-0.7c3.3-1.5,7,1.1,6.8,4.7c-0.1,2.4-2.1,4.4-4.6,4.5c-3,0.1-5,1.7-6.1,4.3C82.6,18.8,82.2,20.4,82.1,22.1z"/>
<path d="M109.9,30.1c-1.6-2.1-3.3-3.7-5-4.9c-3-2.1-6.4-3.2-10.3-3.2c-2.4,0-5.2,0.6-8.3,1.7c-3.2,1.1-5.5,1.7-6.9,1.7
	c-1.1,0-3.3-0.5-6.7-1.5s-6.2-1.5-8.5-1.5c-5.5,0-10.1,2.4-13.7,7.1c-3.6,4.8-5.4,10.8-5.4,18.3c0,8,2.4,16.2,7.1,24.7
	c4.8,8.4,9.5,12.7,14.5,12.7c1.6,0,3.7-0.5,6.4-1.7c2.6-1.1,4.9-1.6,6.8-1.6c2,0,4.4,0.5,7.3,1.6c2.9,1,5.1,1.6,6.8,1.6
	c4.1,0,8.2-3.2,12.4-9.6c2.8-4.3,5.2-8.4,6.4-12.3C117.8,46.5,112.2,32.9,109.9,30.1z M53.3,58.8C53,58.9,52.8,59,52.5,59
	c-0.7,0-1.4-0.4-1.7-1.1c0-0.1-0.1-0.2-0.2-0.3c-0.7-1.4-1.9-4-1.9-9.1c0-1,0.8-1.9,1.9-1.9l0,0c1,0,1.9,0.9,1.9,1.9
	c0,4.2,1,6.2,1.6,7.4c0.1,0.1,0.1,0.3,0.2,0.4C54.5,57.3,54.2,58.4,53.3,58.8z M64.6,29.4c-0.1,0-0.3,0-0.4,0
	c-5.1,0-9.9,8.4-11.1,13.1c-0.2,0.9-1,1.4-1.8,1.4c-0.2,0-0.3,0-0.5-0.1c-1-0.2-1.6-1.2-1.3-2.2C51,35.7,57,25,64.9,25.6
	c1,0.1,1.8,1,1.7,2C66.6,28.7,65.7,29.5,64.6,29.4z"/>
<path d="M146.1,50.9l4.8-8.1c0.2-0.3,0.3-0.8,0.3-1.2c0-0.8-0.3-1.5-1.2-2c-1-0.7-2.5-0.3-3.1,0.8l-4.8,8h-2.4l3.5-5.8
	c0.2-0.3,0.3-0.8,0.3-1.2c0-0.8-0.3-1.5-1.2-2c-1-0.7-2.5-0.3-3.1,0.8l-5,8.1h-2.4l3.5-5.8c0.2-0.3,0.3-0.8,0.3-1.2
	c0-0.8-0.3-1.5-1.2-2c-1-0.7-2.5-0.3-3.1,0.8l-5,8.1h-12.3v4.4h12.5l5,8.2c0.7,1,2.1,1.5,3.1,0.8c0.7-0.5,1.2-1.2,1.2-2
	c0-0.5-0.1-0.8-0.3-1.2l-3.5-5.8h2.4l5,8.2c0.7,1,2.1,1.5,3.1,0.8c0.7-0.5,1.2-1.2,1.2-2c0-0.5-0.1-0.8-0.3-1.2l-3.5-5.8h2.4
	l4.6,8.2c0.7,1,2.1,1.5,3.1,0.8c0.7-0.5,1.2-1.2,1.2-2c0-0.5-0.1-0.8-0.3-1.2L146.1,50.9z"/>
<path d="M35,48.5L27,40.4c0,0-0.1,0-0.1-0.1c-0.1,0-0.1-0.1-0.2-0.1c-0.1,0-0.1-0.1-0.2-0.1c-0.1,0-0.1-0.1-0.2-0.1
	c-0.1,0-0.1-0.1-0.2-0.1s-0.1,0-0.2-0.1c-0.1,0-0.1,0-0.2,0s-0.1,0-0.2,0s-0.1,0-0.2,0c-0.1,0-0.1,0-0.2,0c-0.1,0-0.1,0-0.2,0
	c-0.1,0-0.1,0-0.2,0.1c-0.1,0-0.1,0.1-0.2,0.1H24L7.8,48.8l-0.1,0.1c-0.1,0-0.1,0.1-0.2,0.1c-0.1,0-0.1,0.1-0.2,0.2l-0.1,0.1
	c0.1,0.1,0.1,0.2,0,0.3c0,0,0,0.1-0.1,0.1c-0.1,0.1-0.1,0.2-0.1,0.3c0,0.1,0,0.1,0,0.2s0,0.2,0,0.2c0,0.1,0,0.1,0,0.2
	c0,0.1,0,0.1,0,0.2c0,0.1,0,0.1,0,0.2s0,0.1,0.1,0.2c0,0.1,0.1,0.2,0.1,0.3c0,0,0,0.1,0.1,0.1c0,0.1,0.1,0.2,0.2,0.2l0.1,0.1
	l0.1,0.1c0.1,0.1,0.1,0.1,0.2,0.1c0,0,0.1,0,0.1,0.1l16.2,8.8h0.1c0.1,0,0.1,0.1,0.2,0.1c0.1,0,0.1,0,0.2,0.1c0.1,0,0.1,0,0.2,0
	c0.1,0,0.1,0,0.2,0s0.1,0,0.2,0s0.1,0,0.2,0c0.1,0,0.1,0,0.2,0s0.1,0,0.2-0.1c0.1,0,0.1,0,0.2-0.1c0.1,0,0.1-0.1,0.2-0.1
	c0.1,0,0.1-0.1,0.2-0.1c0.1,0,0.1-0.1,0.2-0.1c0,0,0.1,0,0.1-0.1l8.1-8.1h12.2v-4.4H35z"/>
</svg>
