<?xml version="1.0" encoding="utf-8"?>
<!-- Generator: Adobe Illustrator 21.1.0, SVG Export Plug-In . SVG Version: 6.00 Build 0)  -->
<svg version="1.1" id="Слой_1" xmlns="http://www.w3.org/2000/svg" xmlns:xlink="http://www.w3.org/1999/xlink" x="0px" y="0px"
	 viewBox="0 0 56 53.6" style="enable-background:new 0 0 56 53.6;" xml:space="preserve">
<style type="text/css">
	.st0{fill:#1D1D1D;}
</style>
<g>
	<path class="st0" d="M26.3,20.3h10c0.5,0,1,0.5,1,1v22c0,0.6-0.5,1-1,1h-10c-0.5,0-1-0.4-1-1v-22C25.3,20.7,25.7,20.3,26.3,20.3z"
		/>
</g>
<g>
	<path class="st0" d="M52,47.3c0,0.6-0.5,1-1,1H9v2c0,0.6-0.5,1-1,1s-1-0.4-1-1v-2H5c-0.5,0-1-0.4-1-1c0-0.5,0.5-1,1-1h2v-42
		c0-0.5,0.5-1,1-1s1,0.5,1,1v42h42C51.5,46.3,52,46.7,52,47.3z"/>
</g>
<g>
	<path class="st0" d="M12.3,30.6h10c0.5,0,1,0.4,1,1v11.6c0,0.6-0.5,1-1,1h-10c-0.5,0-1-0.4-1-1V31.6C11.3,31.1,11.7,30.6,12.3,30.6
		z"/>
</g>
<g>
	<path class="st0" d="M50.3,44.3h-10c-0.5,0-1-0.4-1-1v-31c0-0.5,0.5-1,1-1h10c0.5,0,1,0.5,1,1v31C51.3,43.8,50.8,44.3,50.3,44.3z"
		/>
</g>
</svg>
