<?xml version="1.0" encoding="utf-8"?>
<!-- Generator: Adobe Illustrator 21.1.0, SVG Export Plug-In . SVG Version: 6.00 Build 0)  -->
<svg version="1.1" id="Слой_1" xmlns="http://www.w3.org/2000/svg" xmlns:xlink="http://www.w3.org/1999/xlink" x="0px" y="0px"
	 viewBox="0 0 100 125" style="enable-background:new 0 0 100 125;" xml:space="preserve">
<g>
	<g>
		<g>
			<g>
				<rect x="42" y="71.3" width="16" height="2.8"/>
				<path d="M50,74.8c-10.8,5-0.1,20.2-0.1,20.2S60.9,79.9,50,74.8z M50,87c0,0-5.2-7.3,0.1-9.7C55.2,79.7,50,87,50,87z"/>
			</g>
			<path d="M50,5c0,0-18.2,14.9-8,65h16C68.2,19.9,50,5,50,5z M50.3,38.8c-3.6,0-6.5-2.9-6.5-6.5s2.9-6.5,6.5-6.5
				c3.6,0,6.5,2.9,6.5,6.5S53.9,38.8,50.3,38.8z"/>
			<circle cx="50.3" cy="32.3" r="5"/>
		</g>
		<g>
			<path d="M61.6,53c-0.4,4.7-1.2,9.8-2.2,15.3l9.5,7.3C71.2,65.1,64.9,56.6,61.6,53z"/>
		</g>
		<g>
			<path d="M38.4,53c-3.3,3.6-9.6,12.1-7.3,22.6l9.5-7.3C39.6,62.8,38.9,57.7,38.4,53z"/>
		</g>
	</g>
</g>
</svg>
