<?xml version="1.0" encoding="utf-8"?>
<!-- Generator: Adobe Illustrator 21.1.0, SVG Export Plug-In . SVG Version: 6.00 Build 0)  -->
<svg version="1.1" id="Слой_1" xmlns="http://www.w3.org/2000/svg" xmlns:xlink="http://www.w3.org/1999/xlink" x="0px" y="0px"
	 viewBox="0 0 55 55" style="enable-background:new 0 0 55 55;" xml:space="preserve">
<style type="text/css">
	.st0{fill:#FF2D2D;}
</style>
<g>
	<path class="st0" d="M27.5,0C12.3,0,0,12.3,0,27.5C0,42.7,12.3,55,27.5,55S55,42.7,55,27.5C55,12.3,42.7,0,27.5,0z M34.8,36.3
		c-1.7,1.6-3.9,2.3-6.6,2.3c-3.5,0-6-1.2-7.8-3.5c-1.7-2.3-2.6-5.3-2.6-8.9c0-3.7,1-6.7,3-9c2-2.3,4.7-3.4,8.2-3.4
		c2.8,0,5.1,0.8,7.1,2.5l-2.3,3.9c-1.3-1.2-2.9-1.9-4.8-1.9c-1.8,0-3.2,0.7-4.3,2c-1.1,1.3-1.7,2.9-1.7,4.8c0,0.2,0,0.4,0,0.5
		c0.6-0.9,1.5-1.6,2.6-2.2c1.1-0.6,2.3-0.9,3.6-0.9c2.3,0,4.2,0.7,5.8,2.1c1.6,1.4,2.4,3.3,2.4,5.7C37.3,32.7,36.5,34.7,34.8,36.3z"
		/>
	<path class="st0" d="M30.8,27.9C30,27.3,28.9,27,27.7,27c-1.9,0-3.5,0.8-4.7,2.3c0.1,1.3,0.6,2.5,1.4,3.4c0.8,0.9,2,1.4,3.5,1.4
		c1.3,0,2.3-0.4,3.1-1.1c0.8-0.7,1.2-1.5,1.2-2.4C32.1,29.4,31.7,28.5,30.8,27.9z"/>
</g>
</svg>
