<?xml version="1.0" encoding="utf-8"?>
<!-- Generator: Adobe Illustrator 21.1.0, SVG Export Plug-In . SVG Version: 6.00 Build 0)  -->
<svg version="1.1" id="Слой_1" xmlns="http://www.w3.org/2000/svg" xmlns:xlink="http://www.w3.org/1999/xlink" x="0px" y="0px"
	 viewBox="0 0 94 43" style="enable-background:new 0 0 94 43;" xml:space="preserve">
<style type="text/css">
	.st0{fill:#1B1B1B;}
</style>
<g>
	<path class="st0" d="M70.9,15.8c2.7-2.9,4.7-4.9,6.1-6c3.5-2.9,6.8-4.3,9.7-4.3c1.3,0,2.1,0.3,2.6,0.8c0.4,0.4,0.6,1.1,0.6,2.1
		c0,1.4-0.6,2.9-1.8,4.6c-1.3,2-1.9,3.4-1.9,4.2c0,1.1,1.1,2,3.3,2.9c1.6,0.7,2.4,1.5,2.4,2.6s-0.7,1.9-2.2,2.6c-2,0.9-3,1.8-3,2.6
		c0,0.6,0.9,1.7,2.7,3.4c1.5,1.4,2.2,2.6,2.2,3.4c0,0.7-0.3,1.3-1,1.7c-0.7,0.4-1.4,0.5-2.3,0.5c-2.4,0-6.2-1.8-11.4-5.4l-5.9-4.3
		c0.3-0.8,0.5-1.8,0.7-2.9l5.1,2.2c0.2,0.1,0.3,0.1,0.6,0s0.3-0.2,0.4-0.4c0.1-0.2,0.2-0.3,0.1-0.6c-0.1-0.2-0.3-0.3-0.5-0.4
		l-5.5-2.4l0.1-2.5l6.7-1.4c0.2,0,0.4-0.1,0.5-0.3c0.2-0.2,0.2-0.4,0.2-0.6c0-0.2-0.2-0.4-0.4-0.5c-0.2-0.1-0.3-0.1-0.6-0.1
		l-6.6,1.4C71.3,17.4,71.1,16.4,70.9,15.8z"/>
	<path class="st0" d="M50.9,14.6c0,0.7-0.8,1.9-2.5,3.4c-1.9,1.8-2.8,3.4-2.8,4.8c0,1.2,1.1,2.5,3.3,4.1c1.8,1.3,2.7,2.3,2.7,3.1
		c-0.1,0.5-1,1.6-2.7,3.1c-2.2,1.9-3.3,3.3-3.3,4.4c0,0.9,0.5,2.1,1.3,3.5c-2.9,0-5.5-0.3-7.8-1c-0.7-1.1-1-2-1-2.5
		c0-0.6,0.9-1.7,2.7-3.3c2.2-1.9,3.3-3.3,3.3-4.2c0-1.3-1.1-2.7-3.3-4.4c-1.8-1.2-2.7-2.2-2.7-2.8c0-1,0.8-2.2,2.4-3.7
		c2-1.8,3-3.3,3-4.5c0-1.2-0.6-2.8-1.9-4.7c-1.1-1.8-1.7-3.2-1.7-4.2c0-1,0.7-2.3,2.1-3.7c2.5-0.4,4.9-0.6,7.2-0.3
		c-1.2,1.4-1.8,2.8-1.8,4c0,1.4,0.6,3,1.8,5C50.3,12.5,50.9,13.8,50.9,14.6z"/>
	<path class="st0" d="M6.6,13c-1.2-1.7-1.8-3.2-1.8-4.6c0-1,0.2-1.7,0.6-2.1C5.9,5.7,6.8,5.4,8,5.4c3,0,6.2,1.5,9.7,4.3
		c1.2,1,3,2.8,5.4,5.4c-0.3,1-0.6,2.1-0.8,3.3l-5.8-1.2c-0.6-0.1-0.9,0.1-1,0.6c-0.1,0.6,0.1,0.9,0.6,0.9l5.9,1.3l0.1,2.9L17.5,25
		c-0.2,0.1-0.3,0.2-0.5,0.4c-0.1,0.2,0,0.4,0,0.6c0.1,0.2,0.3,0.4,0.5,0.5c0.2,0.1,0.4,0,0.6-0.1l4.2-1.9c0.2,1.1,0.5,2.1,0.8,3.1
		L18,31.4c-5.2,3.7-9,5.5-11.4,5.5c-0.9,0-1.7-0.2-2.3-0.6c-0.7-0.3-1-0.9-1-1.6c0-0.8,0.7-2,2.2-3.4c1.8-1.8,2.7-2.9,2.7-3.4
		c0-0.8-1-1.7-3-2.6C3.7,24.6,3,23.7,3,22.7s0.8-1.9,2.3-2.6c2.2-0.9,3.3-1.9,3.3-2.9C8.6,16.3,7.9,15,6.6,13z"/>
	<path class="st0" d="M69.3,15.8c-1-3.1-3-5.9-5.9-8.4c-2.4-2-5-3.5-7.9-4.5c-0.7,1-1.2,1.8-1.4,2.5c0,0.2-0.1,0.4-0.3,0.6
		c-0.2,0.1-0.4,0.2-0.6,0.1c-0.2,0-0.4-0.2-0.5-0.4c-0.1-0.2-0.1-0.3-0.1-0.6c0.1-0.8,0.5-1.8,1.3-2.8l-2.8-0.5
		C49.7,3.3,49,4.6,49,5.7c0,1.1,0.5,2.5,1.5,4.3c1.3,2,1.9,3.5,1.9,4.7c0,1.2-1,2.7-2.9,4.5c-1.6,1.5-2.4,2.7-2.4,3.7
		c0,0.6,0.9,1.6,2.6,2.8c2.2,1.7,3.3,3.1,3.3,4.4c0,0.9-1.1,2.3-3.3,4.2c-1.8,1.6-2.7,2.6-2.7,3.3c0,0.7,0.4,1.6,1.1,2.8l0.5,0.7
		l2.9-0.4c-0.7-1.2-1.1-2.2-1.1-3c0-0.2,0.1-0.4,0.2-0.6c0.2-0.5,0.6-0.6,1-0.4c0.4,0.3,0.6,0.6,0.4,1c0.1,0.7,0.5,1.6,1.2,2.7
		c3.8-0.8,7.1-2.5,10.1-5.1c1.3-1.1,2.4-2.3,3.4-3.6c1-1.4,1.8-2.9,2.4-4.5v0c0.5-1.3,0.8-2.7,0.9-4.1v-3.4
		C70,18.3,69.7,17,69.3,15.8z M52.2,21.7c-0.2,0-0.3,0-0.4-0.1c-0.2-0.1-0.3-0.3-0.4-0.4c-0.1-0.2,0-0.4,0.1-0.6
		c0.4-0.7,1.1-1.5,2-2.3c1.6-1.5,2.4-2.6,2.4-3.3c0-0.9-0.5-2.2-1.6-4L54,10.2c-0.2-0.5-0.1-0.8,0.4-1.1c0.5-0.2,0.8-0.1,1,0.3
		l0.3,0.6c1.3,2,1.9,3.6,1.9,4.8c0,1.1-1,2.6-3,4.4c-0.7,0.6-1.3,1.3-1.8,2C52.8,21.6,52.6,21.7,52.2,21.7z M54.9,34.5
		c-0.2,0.1-0.3,0.1-0.5,0.1c-0.3,0-0.5-0.1-0.6-0.3c-0.3-0.4-0.3-0.8,0.1-1.1c1.8-1.5,2.7-2.6,2.7-3.1c0-0.8-0.9-1.8-2.6-3l-1-0.7
		c-0.4-0.4-0.4-0.7-0.1-1.1c0.4-0.4,0.7-0.4,1.1-0.1l0.9,0.6c2.2,1.6,3.3,3.1,3.3,4.3C58.1,31.2,57.1,32.6,54.9,34.5z"/>
	<path class="st0" d="M39.5,2.5c-0.8,1.2-1.2,2.3-1.2,3.2c0,1.3,0.6,3,1.9,5c1.1,1.8,1.6,3.1,1.6,4c0,0.7-0.8,1.9-2.5,3.4
		c-1.9,1.8-2.8,3.4-2.8,4.8c0,1.2,1.1,2.5,3.3,4.1c1.8,1.3,2.7,2.3,2.7,3.1c-0.1,0.5-1,1.6-2.7,3.1c-2.2,1.9-3.3,3.3-3.3,4.4
		c0,0.6,0.1,1.2,0.4,1.8c-2.4-1-4.6-2.3-6.6-4c-2.7-2.3-4.5-4.8-5.5-7.6h0c-0.4-1.2-0.8-2.6-1-4.3v-3.8c0.3-1.6,0.6-3.1,1-4.3
		c1-2.9,2.9-5.5,5.6-7.8C33.1,5.1,36.1,3.5,39.5,2.5z"/>
</g>
</svg>
