<?xml version="1.0" encoding="utf-8"?>
<!-- Generator: Adobe Illustrator 21.1.0, SVG Export Plug-In . SVG Version: 6.00 Build 0)  -->
<svg version="1.1" id="Слой_1" xmlns:sketch="http://www.bohemiancoding.com/sketch/ns"
	 xmlns="http://www.w3.org/2000/svg" xmlns:xlink="http://www.w3.org/1999/xlink" x="0px" y="0px" viewBox="0 0 61 50"
	 style="enable-background:new 0 0 61 50;" xml:space="preserve">
<title>301 - Send (Solid)</title>
<desc>Created with Sketch.</desc>
<g sketch:type="MSPage">
	<g sketch:type="MSLayerGroup">
		<path sketch:type="MSShapeGroup" d="M60.5,4L60.5,4c0-0.1-0.1-0.2-0.1-0.3l0,0l0,0c-0.1-0.1-0.1-0.2-0.2-0.3l-0.1,0l-0.2-0.1
			l-0.2,0l-0.1,0h0l-0.1,0l0,0l0,0l-0.1,0l-58.1,12c-0.4,0.1-0.7,0.4-0.8,0.8c-0.1,0.4,0.2,0.8,0.5,1l16.6,8.8L20.5,42v0l0,0.2
			l0,0.1c0,0.1,0.1,0.2,0.1,0.3l0,0.1l0,0l0,0.1l0.2,0.2l0,0l0,0l0.2,0.1l0.1,0c0.1,0,0.2,0,0.3,0h0l0,0l0,0c0.3,0,0.5-0.1,0.7-0.3
			l11.1-7.4L45,43c0.2,0.1,0.4,0.2,0.5,0.2c0.1,0,0.2,0,0.3-0.1c0.3-0.1,0.5-0.3,0.6-0.6L60.4,4.6c0.1-0.2,0.1-0.3,0.1-0.5L60.5,4
			L60.5,4z M48.9,10.7l-24,17.6l-0.1,0.1l0,0l-0.1,0.1l0,0.1l-0.1,0.2l0,0l0,0l-2.8,8.9l-2.2-12.1L48.9,10.7L48.9,10.7z M23.4,39.7
			l2.7-9l5.5,3.5L23.4,39.7L23.4,39.7z"/>
	</g>
</g>
</svg>
