<?xml version="1.0" encoding="utf-8"?>
<!-- Generator: Adobe Illustrator 21.1.0, SVG Export Plug-In . SVG Version: 6.00 Build 0)  -->
<svg version="1.1" id="Слой_1" xmlns="http://www.w3.org/2000/svg" xmlns:xlink="http://www.w3.org/1999/xlink" x="0px" y="0px"
	 viewBox="0 0 64 80" style="enable-background:new 0 0 64 80;" xml:space="preserve">
<g>
	<g>
		<path d="M43.4,22.3c0,0.1-0.1,0.2-0.2,0.2l0,0c-1.6,0-2.9,0-4.2,0c-1.9,0.1-3.8,0.3-5.7,0.5c-0.8,0.1-1.5,0.2-2.3,0.2
			c-0.3,0-0.6,0.1-0.9,0.1c-0.2-0.2-0.3-0.3-0.5-0.4c-0.1-0.6-0.1-1.3,0-2c0.6-3.8,4.1-6.4,7.9-5.9C41,15.6,43.5,18.7,43.4,22.3z"/>
		<path d="M29.5,46.8L29.5,46.8c-1,0-1.9-0.8-1.9-1.9l0,0c0-1,0.8-1.9,1.9-1.9l0,0c1,0,1.9,0.8,1.9,1.9l0,0
			C31.3,45.9,30.5,46.8,29.5,46.8z"/>
	</g>
	<g>
		<path d="M52.1,25.5c-1.3,0.1-2.6,0.3-3.9,0.3c-1.8,0-3.5-0.2-5.3-0.2c-0.2,0-0.4,0-0.6,0c-1.8,0-3.5,0.1-5.3,0.3
			c-2,0.2-4,0.3-6,0.6c-0.2,0-0.4,0.1-0.7,0.1c-3.4,0.4-6.8,0.8-10.2,0.8c-1.6,0-3.2,0-4.8,0c0,0,0,0-0.1,0c-0.6,5.1-4.4,6-5.5,6.2
			c0,2.1,0.1,4.1,0.1,6.2c1.2,0.2,5.1,1.3,5.5,6.8v0.1c0.3,0,0.6,0,0.8,0c1.7,0,3.3,0,5,0c0.1,0,0.4,0.1,0.4,0.1c0,0.5,0.1,1,0,1.4
			c0,0.1-0.5,0.2-0.8,0.2c-3.9,0.1-7.7,0-11.6-0.4c-0.6-0.1-1-0.4-1-1c0-0.9,0-1.8,0-2.6c0.1-4.2,0.1-8.4,0-12.5
			C8.1,30,8,28.2,8,26.4c0-1,0.3-1.3,1.3-1.2c0.4,0,0.9,0.1,1.3,0.1c2.7,0.1,5.4,0.3,8.1,0.3c1.9,0,3.9-0.1,5.8-0.3
			c1.9-0.1,3.7-0.4,5.6-0.6c0.4,0,0.7-0.1,1.1-0.1c2.6-0.3,5.2-0.6,7.9-0.7c1.4-0.1,2.7-0.1,4.1,0c1.6,0,3.1,0.1,4.7,0.1
			c1.1,0,2.3,0.2,3.4,0.4C51.7,24.5,52.1,24.7,52.1,25.5z"/>
		<path d="M62.9,50.5c-1,1.1-2.3,1.7-3.8,1.9c-3.3,0.6-6.6,1.2-9.9,1.8c-4,0.7-8,1.4-12,2.1c-4,0.7-8,1.4-12,2.1
			c-0.7,0.1-1.2-0.1-1.5-0.6c-0.1-0.3-0.2-0.7-0.2-1c-0.1-2.4-0.1-4.8-0.2-7.2l6.8-1c2.1-0.3,3.5-2.2,3.2-4.3v-0.2
			c-0.3-2-2.2-3.5-4.3-3.2l-5.9,0.9c0-0.2,0-0.4,0-0.6c-0.1-2.5-0.1-5-0.2-7.5c0-1,0.3-1.4,1.3-1.6c4.6-0.8,9.3-1.7,13.9-2.5
			c6.4-1.1,12.9-2.3,19.3-3.5c1-0.2,2-0.5,2.8-1.2c0.7-0.6,0.7-1.4-0.1-1.9c-0.5-0.4-1.1-0.6-1.8-1c-0.2,0.7-0.3,1.3-0.4,1.8
			c-0.1,0.2-0.3,0.4-0.5,0.5c-0.3,0.1-0.6,0.1-0.9,0.2c-0.4,0.1-0.6,0-0.5-0.5c0.2-0.7,0.3-1.5,0.5-2.2c-1-0.4-4.8-2.2-4-7.8l0,0
			v-0.1l0,0c-4.2-1.1-8.4-1.7-12.7-2.2c-2.6-0.3-5.1-0.5-7.7-0.9c-2.9-0.4-5.8-1.1-8.7-1.8c-1.7,5.1-5.9,5.1-6.9,5
			c-0.2,0.9-0.4,1.9-0.6,2.8c-0.4,2-0.8,4-1.3,6c0,0.2-0.2,0.5-0.4,0.6c-1.1,0.2-1.5-0.1-1.2-1.2v-0.1c1.1-5.2,2.2-10.5,3.3-15.7
			c0.2-0.9,0.6-1.2,1.5-0.9c1.6,0.5,3.1,1,4.7,1.4c4.6,1.3,9.3,2.1,14,2.7c3.4,0.4,6.9,0.8,10.3,1.3c4.1,0.6,8,1.7,11.9,3.2
			c0.7,0.3,0.9,0.6,0.7,1.4c-0.3,1.3-0.6,2.7-0.8,4c0.3,0.1,0.6,0.2,0.9,0.3c2.5,0.9,3.4,2.2,3.5,4.9c0.2,7.6,0.4,15.2,0.6,22.8
			C64,48.8,63.6,49.7,62.9,50.5z"/>
	</g>
</g>
</svg>
