<?xml version="1.0" encoding="utf-8"?>
<!-- Generator: Adobe Illustrator 21.1.0, SVG Export Plug-In . SVG Version: 6.00 Build 0)  -->
<svg version="1.1" xmlns="http://www.w3.org/2000/svg" xmlns:xlink="http://www.w3.org/1999/xlink" x="0px" y="0px"
	 viewBox="0 0 800 800" style="enable-background:new 0 0 800 800;" xml:space="preserve">
<style type="text/css">
	.st0{fill:#fff;}
</style>
<g id="background">
</g>
<g id="object">
	<g>
		<path class="st0" d="M301.1,351.9c21.9-23.1,15.7-64.9,13.1-93.2c-3.8-42.2-11-84.3-21.5-125.4c-12.5-49-30.8-113-85.5-128.8
			c-32.5-9.4-69.8-2.6-102,4.6c-29.6,6.6-59.6,18.6-80.8,40.9C3.2,72.5-2,103.8,0.6,133.6c3.3,37.7,12.8,76,20.3,113.1
			c7.5,37.1,16.1,74.7,32,109.3c9.6,20.9,27.1,46.3,53.4,42.7c0.3,0,0.5-0.1,0.8-0.2c0.4,0,0.9,0,1.3-0.1c9.1-1.6,18.2-3.2,27.4-4.8
			c3.3,23.1,20.8,51.4,43.8,70.6c3.2,85.5,6.3,170.9,9.5,256.4c0.4,10.3,16.4,10.3,16,0c-3-81.6-6-163.2-9.1-244.8
			c18.3,10.5,38.6,14.4,57.2,6c1,103.5,2.1,206.9,3.1,310.4c0.1,10.3,16.1,10.3,16,0c-1.1-107.5-2.1-215-3.2-322.5
			c20.1-25.6,5.6-73.1,0.7-102.9c0.4-0.1,0.8-0.2,1.2-0.3C282.7,363.8,292.7,360.8,301.1,351.9z M251.9,305.9
			c-0.1-10.6-0.6-21.2-1.2-31.7c16.3,0,32.7,3.1,49.2,9.3c0.1,0,0.2,0,0.3,0.1c0.2,5.1,0.3,10.2,0.3,15.3c0,4.4-0.2,8.7-0.6,12.8
			C284,306.9,267.9,305.1,251.9,305.9z M259.8,83.2c0.5,1.1,0.9,2.3,1.3,3.4c-18.4-5.3-37.8-6.2-56.9-3.9
			c-4.1-8.2-8.6-16.1-13.5-23.9c20.5-2.7,41.4-1.3,61,5.9C254.6,70.9,257.3,77.1,259.8,83.2z M265.4,104.8c0.9,0.3,1.8,0.5,2.6,0.5
			c2.8,8.3,5.4,16.6,7.7,25c-17.5-5.3-35.8-7.2-53.9-6.1c-3.1-8.8-6.5-17.5-10.2-26.1C229.7,96.6,248,98.4,265.4,104.8z
			 M280.3,148.8c1.9,8.1,3.7,16.2,5.3,24.4c-16.9-5.2-34.2-7.2-51.3-6.2c-2.2-8.9-4.6-17.9-7.4-26.8
			C244.9,139.6,263,142.4,280.3,148.8z M289,191.2c0.8,4.4,1.5,8.8,2.3,13.1c0.8,4.7,1.5,9.4,2.2,14.1c-16.6-5.5-33.5-8-50.2-7.6
			c-1.6-9.4-3.4-18.7-5.4-28C255,182.3,272.1,184.9,289,191.2z M295.8,236.2c0.1,0,0.1,0,0.2,0.1c1.3,10,2.4,20,3.1,30
			c-16.5-5.6-33.2-8.3-49.7-8.2c-0.9-10.4-2.2-20.9-3.6-31.2C262.4,226.8,279.2,229.9,295.8,236.2z M64.1,342
			c-13.3-30.1-20.2-63.4-26.9-95.4c-6.7-32.3-12.1-64.8-18.2-97.2c-5.2-27.4-5-56.2,10.7-80.2C47.7,41.5,84,30.3,114.4,23.5
			c32-7.1,72.2-13.5,102.9,1.9c9,4.5,16.2,11.3,22.2,19.1c-19.2-4.2-39.2-3.9-58.8-0.4c-3.4-4.7-7-9.2-10.8-13.6
			c-6.8-7.8-18,3.5-11.3,11.3c1.7,2,3.4,4.1,5.1,6.2c-18,5.1-35.2,12.7-50.7,22.1c-8.8,5.4-0.8,19.2,8.1,13.8
			c16-9.7,34.1-17.4,52.8-22c5.1,7.6,9.7,15.4,13.9,23.5C166,90.3,145,99,126.5,110.2c-8.8,5.4-0.8,19.2,8.1,13.8
			c18.2-11,38.9-19.5,60.3-23.6c3.8,8.4,7.2,16.9,10.3,25.6c-21.8,3.5-42.9,11.2-61.9,22.6c-8.8,5.3-0.8,19.2,8.1,13.8
			c18.2-11,38.3-18.1,59-21c2.8,9,5.4,18.1,7.7,27.2c-21,3.4-41.5,11.1-60.4,22.4c-8.8,5.3-0.8,19.2,8.1,13.8
			c17.7-10.6,36.6-17.7,56.1-20.6c2.1,9.2,3.9,18.4,5.6,27.7c-21.1,2.7-41.6,9.9-60.9,21.5c-8.8,5.3-0.8,19.2,8.1,13.8
			c17.7-10.7,36.3-17.2,55.4-19.5c1.5,10.4,2.7,20.8,3.6,31.2c-21.5,2.5-42.5,9.8-62.3,21.7c-8.8,5.3-0.8,19.2,8.1,13.8
			c17.8-10.7,36.4-17.2,55.4-19.5c0.7,10.8,1,21.6,1.1,32.4c-21.7,3.4-42.8,11.3-62.2,23c-8.8,5.3-0.8,19.2,8.1,13.8
			c17-10.3,35.3-17.3,54-20.5c-0.2,11.6-0.8,23.2-1.6,34.8c-42.6,9.2-85.7,16.9-128.6,24.3C83.3,385.2,71.6,359,64.1,342z
			 M151.7,392.9c-0.1-0.7-0.3-1.4-0.5-2c16.8-3.1,33.6-6.3,50.4-9.6c0.1,0.3,0.2,0.5,0.3,0.8c11.8,22.1,6.7,53.3-16.8,65
			C168.7,433,154.3,413.2,151.7,392.9z M260.9,408.5c2.4,16.1,5.4,39.1-5.7,52.8c-13.8,17-41.4,5.4-56.1-3.8
			c25-16.7,30.5-52.5,18.5-79.4c1.7-0.4,3.5-0.7,5.2-1c10.5-2.1,21-4.4,31.5-6.7C256.4,383,259.1,395.7,260.9,408.5z M250.5,354.9
			c0.8-11,1.2-22,1.4-32.9c14.8-0.8,29.8,0.9,44.6,5.3c-4.1,11.1-12,19.5-26.4,23C263.5,351.9,257,353.4,250.5,354.9z"/>
		<path class="st0" d="M139.9,338.7c-23.6-35.3-45.1-75.1-54.6-116.6c-9-39.2-6.8-83-1.9-122.8c1.3-10.2-14.8-10.1-16,0
			c-5.1,41.8-5.9,85.7,2.5,127c8.7,42.6,32.2,84.6,56.3,120.5C131.8,355.3,145.7,347.3,139.9,338.7z"/>
	</g>
</g>
</svg>
