<?xml version="1.0" encoding="utf-8"?>
<!-- Generator: Adobe Illustrator 21.1.0, SVG Export Plug-In . SVG Version: 6.00 Build 0)  -->
<svg version="1.1" id="Capa_1" xmlns="http://www.w3.org/2000/svg" xmlns:xlink="http://www.w3.org/1999/xlink" x="0px" y="0px"
	 viewBox="0 0 26 26" style="enable-background:new 0 0 26 26;" xml:space="preserve">
<style type="text/css">
	.st0{fill:#CCB059;}
</style>
<g>
	<path class="st0" d="M21.1,2.5c0.7,1.2,0.2,1.7-0.4,2c-0.5,0.3-1.2,0.5-1.9-0.7C18.1,2.6,18.1,0,18.1,0S20.5,1.4,21.1,2.5z"/>
	<path class="st0" d="M24.2,6c-0.6,1.3-1.3,1.1-1.9,0.7c-0.6-0.3-1.1-0.8-0.5-2C22.4,3.5,24.5,2,24.5,2S24.7,4.8,24.2,6z"/>
	<path class="st0" d="M24.6,10.7c-0.9,1.1-1.5,0.7-2,0.3s-0.9-1,0-2c0.9-1.1,3.3-2,3.3-2S25.5,9.7,24.6,10.7z"/>
	<path class="st0" d="M20.6,9.3c1.2,0.7,0.9,1.3,0.6,1.9c-0.3,0.6-0.9,1-2.1,0.3s-2.6-2.9-2.6-2.9S19.3,8.6,20.6,9.3z"/>
	<path class="st0" d="M22.9,15.5c-1.2,0.7-1.7,0.2-2-0.4c-0.3-0.5-0.4-1.2,0.8-1.9c1.2-0.7,3.8-0.7,3.8-0.7S24.1,14.9,22.9,15.5z"/>
	<path class="st0" d="M19.8,13c0.9,1.2,0.4,1.7-0.1,2.1s-1.1,0.6-2-0.5c-0.9-1.1-1.3-3.7-1.3-3.7S19,11.9,19.8,13z"/>
	<path class="st0" d="M20.4,19.6c-1.3,0.2-1.6-0.5-1.7-1.1s0-1.3,1.4-1.5c1.4-0.2,3.8,0.6,3.8,0.6S21.8,19.4,20.4,19.6z"/>
	<path class="st0" d="M18.2,16.3c0.6,1.3,0,1.7-0.6,2c-0.6,0.2-1.3,0.3-1.9-1c-0.6-1.3-0.4-3.9-0.4-3.9S17.6,15,18.2,16.3z"/>
	<path class="st0" d="M15.5,18.7c0.2,1.4-0.5,1.7-1.1,1.8c-0.7,0.1-1.4,0-1.6-1.4s0.6-3.9,0.6-3.9S15.2,17.4,15.5,18.7z"/>
	<path class="st0" d="M16.8,22.8c-1.4-0.2-1.4-1-1.3-1.6s0.4-1.2,1.8-1c1.4,0.2,3.5,1.8,3.5,1.8S18.2,23,16.8,22.8z"/>
	<path class="st0" d="M12.3,21.1c0.1,1.4-0.6,1.6-1.2,1.6c-0.6,0-1.3-0.2-1.4-1.6s1-3.8,1-3.8S12.3,19.6,12.3,21.1z"/>
	<path class="st0" d="M12.8,25.3c-1.3-0.5-1.2-1.2-1-1.8c0.2-0.7,0.7-1.2,2-0.7c1.4,0.5,3.1,2.4,3.1,2.4S14.1,25.7,12.8,25.3z"/>
	<path class="st0" d="M20.2,5.5c1.3,0.3,1.3,1.1,1.1,1.7c-0.2,0.6-0.6,1.2-2,0.8c-1.3-0.4-3.2-2.2-3.2-2.2S18.8,5.1,20.2,5.5z"/>
	<path class="st0" d="M10.7,23.5c0,0-6.5,2.5-10.5,1.6C-0.2,25.5,0.6,26,0.6,26S6.5,26.1,10.7,23.5z"/>
</g>
</svg>
