<?xml version="1.0" encoding="utf-8"?>
<!-- Generator: Adobe Illustrator 21.1.0, SVG Export Plug-In . SVG Version: 6.00 Build 0)  -->
<svg version="1.1" id="Capa_1" xmlns="http://www.w3.org/2000/svg" xmlns:xlink="http://www.w3.org/1999/xlink" x="0px" y="0px"
	 viewBox="0 0 26 26" style="enable-background:new 0 0 26 26;" xml:space="preserve">
<style type="text/css">
	.st0{fill:#CCB059;}
</style>
<g>
	<path class="st0" d="M7.9,0c0,0,0,2.6-0.7,3.8C6.5,5,5.8,4.8,5.3,4.5c-0.6-0.3-1.1-0.8-0.4-2C5.5,1.4,7.9,0,7.9,0z"/>
	<path class="st0" d="M1.5,2c0,0,2.1,1.5,2.7,2.7c0.6,1.2,0.1,1.7-0.5,2C3.1,7.1,2.4,7.3,1.8,6C1.3,4.8,1.5,2,1.5,2z"/>
	<path class="st0" d="M0.1,7c0,0,2.4,0.9,3.3,2C4.3,10,3.9,10.6,3.4,11c-0.5,0.4-1.1,0.8-2-0.3C0.5,9.7,0.1,7,0.1,7z"/>
	<path class="st0" d="M9.5,8.6c0,0-1.4,2.2-2.6,2.9c-1.2,0.7-1.8,0.3-2.1-0.3c-0.3-0.6-0.6-1.2,0.6-1.9C6.7,8.6,9.5,8.6,9.5,8.6z"/>
	<path class="st0" d="M0.5,12.5c0,0,2.6,0,3.8,0.7c1.2,0.7,1.1,1.4,0.8,1.9c-0.3,0.6-0.8,1.1-2,0.4C1.9,14.9,0.5,12.5,0.5,12.5z"/>
	<path class="st0" d="M9.6,10.9c0,0-0.4,2.6-1.3,3.7c-0.9,1.1-1.5,0.9-2,0.5c-0.5-0.4-1-0.9-0.1-2.1C7,11.9,9.6,10.9,9.6,10.9z"/>
	<path class="st0" d="M2.1,17.6c0,0,2.4-0.8,3.8-0.6c1.4,0.2,1.5,0.9,1.4,1.5c-0.1,0.6-0.4,1.3-1.7,1.1C4.2,19.4,2.1,17.6,2.1,17.6z
		"/>
	<path class="st0" d="M10.7,13.4c0,0,0.2,2.6-0.4,3.9c-0.6,1.3-1.3,1.2-1.9,1c-0.6-0.3-1.2-0.7-0.6-2C8.4,15,10.7,13.4,10.7,13.4z"
		/>
	<path class="st0" d="M12.6,15.2c0,0,0.8,2.5,0.6,3.9c-0.2,1.4-0.9,1.5-1.6,1.4c-0.6-0.1-1.3-0.4-1.1-1.8
		C10.8,17.4,12.6,15.2,12.6,15.2z"/>
	<path class="st0" d="M5.2,22c0,0,2.1-1.6,3.5-1.8c1.4-0.2,1.7,0.4,1.8,1c0.1,0.6,0.1,1.4-1.3,1.6C7.8,23,5.2,22,5.2,22z"/>
	<path class="st0" d="M15.3,17.3c0,0,1.1,2.4,1,3.8c-0.1,1.4-0.8,1.6-1.4,1.6c-0.6,0-1.3-0.2-1.2-1.6C13.7,19.6,15.3,17.3,15.3,17.3
		z"/>
	<path class="st0" d="M9.1,25.2c0,0,1.7-1.9,3.1-2.4c1.3-0.5,1.8,0,2,0.7c0.2,0.6,0.3,1.3-1,1.8C11.9,25.7,9.1,25.2,9.1,25.2z"/>
	<path class="st0" d="M9.9,5.8c0,0-1.9,1.8-3.2,2.2C5.3,8.4,4.9,7.8,4.7,7.2C4.5,6.6,4.5,5.8,5.8,5.5C7.2,5.1,9.9,5.8,9.9,5.8z"/>
	<path class="st0" d="M25.4,26c0,0,0.8-0.5,0.4-0.9c-4,0.9-10.5-1.6-10.5-1.6C19.5,26.1,25.4,26,25.4,26z"/>
</g>
</svg>
