<svg id="Layer_1" data-name="Layer 1" xmlns="http://www.w3.org/2000/svg" viewBox="0 0 375.29 512"><title>geo</title><path d="M255.64,0C152.18,0,68,84.18,68,187.64c0,47.54,30,114.69,89,199.61a1342.19,1342.19,0,0,0,87.43,112.13L255.64,512l11.2-12.62a1342.19,1342.19,0,0,0,87.43-112.13c59.07-84.92,89-152.07,89-199.61C443.29,84.18,359.11,0,255.64,0Zm74.22,369.91c-29.18,42-58.68,78.12-74.22,96.55-15.5-18.38-44.88-54.37-74-96.3-54.73-78.68-83.66-141.8-83.66-182.52,0-87,70.75-157.71,157.71-157.71s157.72,70.75,157.72,157.71C413.36,228.32,384.48,291.35,329.86,369.91Z" transform="translate(-68)"/><path d="M255.64,69.35A110.75,110.75,0,1,0,366.39,180.1,110.87,110.87,0,0,0,255.64,69.35Zm0,191.56a80.81,80.81,0,1,1,80.82-80.81A80.91,80.91,0,0,1,255.64,260.91Z" transform="translate(-68)"/></svg>