<svg id="Capa_1" data-name="Capa 1" xmlns="http://www.w3.org/2000/svg" viewBox="0 0 97.75 97.75"><title>vkfooter</title><path d="M48.88,0A48.88,48.88,0,1,0,97.75,48.88,48.87,48.87,0,0,0,48.88,0ZM73.67,54.16c2.27,2.23,4.69,4.32,6.73,6.77a19,19,0,0,1,2.41,3.48c.93,1.8.09,3.77-1.52,3.88h-10a7.74,7.74,0,0,1-6.38-2.6c-1.39-1.41-2.67-2.91-4-4.37a9.13,9.13,0,0,0-1.8-1.6,2.08,2.08,0,0,0-3.33.81A10.5,10.5,0,0,0,54.7,65.2c-.11,2.36-.82,3-3.19,3.09a25.65,25.65,0,0,1-14.33-3.08,31.61,31.61,0,0,1-9.64-9A121.92,121.92,0,0,1,14.85,33.56c-.8-1.79-.22-2.74,1.75-2.78,3.27-.06,6.54-.05,9.8,0a2.9,2.9,0,0,1,2.73,2,61,61,0,0,0,6.64,12.31,10.49,10.49,0,0,0,2.51,2.76c1.16.79,2,.53,2.59-.76a8.61,8.61,0,0,0,.58-2.59,38.59,38.59,0,0,0-.16-9A3.77,3.77,0,0,0,38.07,32c-1-.18-.81-.54-.35-1.08a3.6,3.6,0,0,1,3.08-1.53H52.11c1.78.35,2.18,1.15,2.42,2.94V44.94c0,.7.35,2.76,1.6,3.21,1,.33,1.66-.47,2.26-1.1a39.16,39.16,0,0,0,6.38-9.8c.76-1.55,1.42-3.15,2.06-4.76a2.44,2.44,0,0,1,2.56-1.75H80.29a5.27,5.27,0,0,1,1,.06c1.83.31,2.34,1.1,1.77,2.89a27.17,27.17,0,0,1-4.33,7.51c-1.82,2.52-3.76,4.94-5.56,7.47C71.48,51,71.61,52.15,73.67,54.16Z"/></svg>