<svg id="Capa_1" data-name="Capa 1" xmlns="http://www.w3.org/2000/svg" viewBox="0 0 512 512"><title>employers</title><path d="M165.68,201.1l-32.92-12.35a8.56,8.56,0,0,1-5.53-8v-5.83a63.64,63.64,0,0,0,32.06-55.2v-24a63.53,63.53,0,0,0-24.5-50.12,40.09,40.09,0,0,0,.45-6,39.57,39.57,0,1,0-78.66,6A63.54,63.54,0,0,0,32.06,95.68v24a63.63,63.63,0,0,0,32.07,55.2v5.83a8.57,8.57,0,0,1-5.54,8L25.67,201.1A39.74,39.74,0,0,0,0,238.14v74a7.5,7.5,0,0,0,15,0v-74a24.08,24.08,0,0,1,.3-3.81l11.92,11.91A16.48,16.48,0,0,1,32.06,258v54.16a7.5,7.5,0,0,0,15,0V258a31.34,31.34,0,0,0-9.24-22.31L22.6,220.42a24.38,24.38,0,0,1,8.34-5.28L58.08,205l30.1,30.1v77.06a7.5,7.5,0,0,0,15,0V235.06L133.27,205l27.14,10.18a24.38,24.38,0,0,1,8.34,5.28l-15.22,15.22A31.34,31.34,0,0,0,144.29,258v54.16a7.5,7.5,0,0,0,15,0V258a16.41,16.41,0,0,1,4.85-11.7l11.91-11.92a24.08,24.08,0,0,1,.3,3.81v74a7.5,7.5,0,0,0,15,0v-74A39.72,39.72,0,0,0,165.68,201.1ZM95.68,15A24.6,24.6,0,0,1,120.1,37a63.45,63.45,0,0,0-48.85,0A24.61,24.61,0,0,1,95.68,15ZM47.06,95.68a48.62,48.62,0,0,1,97.23,0v8.23c-34.92-2.64-68.45-22.47-68.8-22.68a7.5,7.5,0,0,0-10.57,3.08c-3.38,6.77-11.11,12.24-17.86,15.87v-4.5Zm0,24v-2.91c6.89-3,19.13-9.28,27-19.22C86.32,104,114.44,117,144.29,119v.78a48.62,48.62,0,0,1-97.23,0ZM95.68,221.35,72,197.63a23.59,23.59,0,0,0,7.15-16.49,63.46,63.46,0,0,0,33.13,0,23.58,23.58,0,0,0,7.16,16.49Z" transform="translate(0)" style="fill:#d03a3a"/><path d="M488.5,368.94l-43.58-19.37a8.54,8.54,0,0,1-5.07-7.8v-12a63.53,63.53,0,0,0,24-49.76V263.2a15.52,15.52,0,0,0,8-13.58V248a63.69,63.69,0,0,0-63.61-63.61h-16A63.69,63.69,0,0,0,328.66,248v14.84a15.71,15.71,0,0,0,6,12.6,14.11,14.11,0,0,0,2,1.32v3.31a63.51,63.51,0,0,0,24,49.75v12a8.53,8.53,0,0,1-5.06,7.8l-43.59,19.37a39.6,39.6,0,0,0-23.49,36.15V504.5a7.5,7.5,0,0,0,15,0V405.1a24.48,24.48,0,0,1,.15-2.58l20.08,20.08a16.41,16.41,0,0,1,4.85,11.7v70.2a7.5,7.5,0,0,0,15,0V434.3A31.34,31.34,0,0,0,334.42,412l-23.94-23.94a24.45,24.45,0,0,1,7.69-5.4l42.85-19,31.77,31.78V504.5a7.5,7.5,0,0,0,15,0V395.38l31.78-31.77,42.84,19a24.45,24.45,0,0,1,7.69,5.4L466.16,412a31.34,31.34,0,0,0-9.24,22.31v70.2a7.5,7.5,0,0,0,15,0V434.3a16.41,16.41,0,0,1,4.85-11.7l20.08-20.08a24.48,24.48,0,0,1,.15,2.58v99.4a7.5,7.5,0,0,0,15,0V405.1A39.61,39.61,0,0,0,488.5,368.94Zm-88.21,12.73-27.88-27.88a23.53,23.53,0,0,0,3.32-12v-3a63.52,63.52,0,0,0,49.12,0v3a23.53,23.53,0,0,0,3.32,12Zm0-53a48.66,48.66,0,0,1-48.61-48.61v-3.38a44.11,44.11,0,0,0,13.62-8.84,7.5,7.5,0,1,0-10.18-11c-3.75,3.46-7.5,5.7-11.13,6.65l-.2,0a1.47,1.47,0,0,1-.13-.68V248a48.67,48.67,0,0,1,48.61-48.61h16A48.67,48.67,0,0,1,456.92,248v1.64a.49.49,0,0,1-.34.49c-44.91,8.87-67.44-7.85-75-15.45a7.5,7.5,0,0,0-10.6,10.61c23.29,23.29,57.27,23.71,78,21.22v13.56A48.67,48.67,0,0,1,400.29,328.66Z" transform="translate(0)" style="fill:#d03a3a"/><path d="M271.44,453.77a7.49,7.49,0,0,0-8.44-6.42,171.66,171.66,0,0,1-23,1.55A168.9,168.9,0,0,1,90.35,358.41L109.12,371a7.5,7.5,0,0,0,8.34-12.47l-38.87-26A7.5,7.5,0,0,0,67,338l-4.63,46.51a7.5,7.5,0,0,0,6.72,8.2,6.56,6.56,0,0,0,.76,0A7.5,7.5,0,0,0,77.26,386L79,368.86A184.05,184.05,0,0,0,265,462.21,7.5,7.5,0,0,0,271.44,453.77Z" transform="translate(0)" style="fill:#d03a3a"/><path d="M380.55,160.1l-14.83-44.33a7.5,7.5,0,0,0-14.22,4.76l6.08,18.17a184.18,184.18,0,0,0-176.11-33,7.5,7.5,0,1,0,4.77,14.22,169,169,0,0,1,162.17,30.73l-19.82-3.35a7.5,7.5,0,1,0-2.49,14.79l46.08,7.79a7.61,7.61,0,0,0,1.25.1,7.51,7.51,0,0,0,7.12-9.88Z" transform="translate(0)" style="fill:#d03a3a"/></svg>