<svg id="Capa_1" data-name="Capa 1" xmlns="http://www.w3.org/2000/svg" viewBox="0 0 512 391.76"><title>team</title><path d="M175.84,395.51a7.5,7.5,0,0,0-7.5,7.5v32.06a7.5,7.5,0,0,0,15,0V403A7.5,7.5,0,0,0,175.84,395.51Z" transform="translate(0 -50.81)" style="fill:#d03a3a"/><path d="M336.16,395.51a7.5,7.5,0,0,0-7.5,7.5v32.06a7.5,7.5,0,0,0,15,0V403A7.5,7.5,0,0,0,336.16,395.51Z" transform="translate(0 -50.81)" style="fill:#d03a3a"/><path d="M115.06,236c-17.41-8.71-50.07-8.81-51.45-8.81a7.5,7.5,0,1,0,0,15c8.44,0,32.92,1.31,44.74,7.22A7.5,7.5,0,1,0,115.06,236Z" transform="translate(0 -50.81)" style="fill:#d03a3a"/><path d="M39.56,379.47a7.5,7.5,0,0,0-7.5,7.5v48.1a7.5,7.5,0,0,0,15,0V387A7.5,7.5,0,0,0,39.56,379.47Z" transform="translate(0 -50.81)" style="fill:#d03a3a"/><path d="M494.56,351.46l-30.37-15.18a.52.52,0,0,1-.29-.46V320.55a55.33,55.33,0,0,0,23.5-38.08,63.4,63.4,0,0,0-16.85-82.6,32.39,32.39,0,0,0,1.37-9.29c0-19.61-17.75-35.56-39.56-35.56S392.79,171,392.79,190.58a32,32,0,0,0,1.37,9.29A64,64,0,0,0,373.34,227c-1.86-18.27-3.79-39.87-5.65-65-2.45-33.19-14.39-61.22-34.52-81.06-20-19.69-46.67-30.1-77.17-30.1s-57.19,10.41-77.17,30.1c-20.13,19.83-32.07,47.87-34.52,81.06q-1,13.22-2,25.12H71.63a47.63,47.63,0,0,0-47.58,47.58v.44a39.84,39.84,0,0,0,4.17,17.7l3.84,7.68v12.24a58.52,58.52,0,0,0,24,47.3v10.83a3.14,3.14,0,0,1-2.27,3l-31,8.85A31.67,31.67,0,0,0,0,373.05v62a7.5,7.5,0,0,0,15,0v-62a16.62,16.62,0,0,1,12-15.91l31-8.85A17.58,17.58,0,0,0,61.15,347l19,19v69a7.5,7.5,0,0,0,15,0V366l19.14-19.14a40.34,40.34,0,0,0,7,2.52l7.6,2.17a39.59,39.59,0,0,0-16.65,32.23v51.26a7.5,7.5,0,0,0,15,0V383.81a24.57,24.57,0,0,1,14.64-22.47l42.88-18.93a79.66,79.66,0,0,0,142.52,0l42.86,18.94a24.56,24.56,0,0,1,14.65,22.47v51.25a7.5,7.5,0,0,0,15,0V383.82a39.52,39.52,0,0,0-9.48-25.66l11.61-5.81,8.71,8.28a31.53,31.53,0,0,0,43.47,0l8.71-8.27,25.05,12.52a16.44,16.44,0,0,1,9.15,14.8v55.39a7.5,7.5,0,0,0,15,0V379.68A31.38,31.38,0,0,0,494.56,351.46ZM432.35,170c13.55,0,24.57,9.22,24.57,20.56,0,.47,0,.94-.08,1.41a63.63,63.63,0,0,0-49,0c0-.47-.08-.94-.08-1.41C407.79,179.24,418.81,170,432.35,170ZM87.66,352.32,70.57,335.23a18.1,18.1,0,0,0,.54-4.37V327.7A52.42,52.42,0,0,0,86,330.32c.57,0,1.15,0,1.72,0a55.72,55.72,0,0,0,16.53-2.5v3a20.42,20.42,0,0,0,.46,4.45Zm-1.25-37c-21.7-.64-39.35-19.75-39.35-42.59v-14a7.51,7.51,0,0,0-.79-3.36l-4.63-9.26a24.63,24.63,0,0,1-2.59-11v-.44a32.61,32.61,0,0,1,32.58-32.58h64.64v31.13a32.62,32.62,0,0,1-3.44,14.57l-3.78,7.57a7.51,7.51,0,0,0-.79,3.36v16a40.6,40.6,0,0,1-41.85,40.57Zm62.68,26.44L125.4,335c-6.19-1.77-6.19-2.46-6.19-4.13V320.53A55.41,55.41,0,0,0,130.62,310a15.3,15.3,0,0,0,5.44,6.12,165.71,165.71,0,0,0,34,16.32ZM256,371.46a64.57,64.57,0,0,1-57.52-35.12l10.91-4.82a23.54,23.54,0,0,0,14-21.53V292a87.65,87.65,0,0,0,65.16,0v18a23.54,23.54,0,0,0,14,21.53l10.91,4.82A64.42,64.42,0,0,1,256,371.46Zm65-48.2-12.36-5.46a8.55,8.55,0,0,1-5.09-7.81V284.21a87.67,87.67,0,0,0,40.08-73.59V196.56A31.27,31.27,0,0,0,333,172.9c-15.07-13.1-49.18-36-108.32-41.89a7.5,7.5,0,1,0-1.49,14.93c55,5.5,86.24,26.34,100,38.28a16.28,16.28,0,0,1,5.5,12.34v14.06a72.66,72.66,0,0,1-145.32,0v-6.28a8.18,8.18,0,0,1,4.27-7.06c9.38-5.4,21.75-15.4,27.41-32.39a7.5,7.5,0,0,0-14.23-4.74c-4.17,12.52-13.54,20-20.66,24.13a23.33,23.33,0,0,0-11.79,20.07v6.27a87.67,87.67,0,0,0,40.08,73.59V310a8.55,8.55,0,0,1-5.09,7.81L191,323.26c-24.16-6.46-39.64-15.08-46.76-19.69a.37.37,0,0,1-.18-.43c2.61-15.47,9.33-60.07,15.24-140.07,2.18-29.51,12.58-54.23,30.09-71.48C206.48,74.73,229.52,65.81,256,65.81s49.52,8.92,66.64,25.78c17.51,17.25,27.91,42,30.09,71.48,5.9,80,12.63,124.6,15.24,140.07a.37.37,0,0,1-.18.43C360.66,308.19,345.18,316.8,321,323.26Zm79.78,12.56a.52.52,0,0,1-.29.46L377,348c-.28-.13-.54-.28-.83-.41L341.9,332.48a165.19,165.19,0,0,0,34-16.32,15.41,15.41,0,0,0,6.82-15.52c-.05-.34-.11-.7-.17-1.06a55.38,55.38,0,0,0,18.22,21Zm42.94,13.94a16.53,16.53,0,0,1-22.8,0l-7-6.62a15.51,15.51,0,0,0,1.83-7.32v-8a56,56,0,0,0,33.09,0v8a15.63,15.63,0,0,0,1.82,7.33Zm-11.4-34.42A40.5,40.5,0,0,1,392,279.17a7.48,7.48,0,0,0-1.06-3.11,48.62,48.62,0,1,1,87.55-10.19c-21.29-21.63-58.76-30.11-60.56-30.51a7.5,7.5,0,0,0-9.12,7.32s-.34,5.25-5.82,10.73A7.5,7.5,0,0,0,413.61,264a36.19,36.19,0,0,0,8.15-12.12c12.62,3.75,38.81,13.22,50.57,29.84A40.49,40.49,0,0,1,432.35,315.34Z" transform="translate(0 -50.81)" style="fill:#d03a3a"/><path d="M472.44,389.38a7.5,7.5,0,0,0-7.5,7.5v38.19a7.5,7.5,0,0,0,15,0V396.88A7.5,7.5,0,0,0,472.44,389.38Z" transform="translate(0 -50.81)" style="fill:#d03a3a"/></svg>