<svg id="Capa_1" data-name="Capa 1" xmlns="http://www.w3.org/2000/svg" viewBox="0 0 548.36 312.86"><title>vk</title><path d="M545.45,400.3a35.57,35.57,0,0,0-1.86-3.57q-14.26-25.71-54.53-63.1l-.57-.57-.28-.28-.29-.29h-.28q-18.27-17.42-23.13-23.42-8.86-11.42-4-23.13,3.42-8.85,25.69-37.39,11.71-15.13,18.56-24.27,49.4-65.67,42.83-83.94l-1.7-2.85q-1.73-2.56-8.85-4.71t-18.28-.71l-82.22.57a10.7,10.7,0,0,0-5.71.14l-3.72.86-1.43.72-1.13.85a12.89,12.89,0,0,0-3.15,3,19.64,19.64,0,0,0-2.84,5A464.91,464.91,0,0,1,388,207.44q-10.56,17.72-19.41,30.7t-14.85,19.12a103.34,103.34,0,0,1-10.85,9.85q-4.86,3.72-7.42,3.14t-4.86-1.14a19,19,0,0,1-6.42-7A31.39,31.39,0,0,1,320.91,251q-.86-6.72-1-11.56t.14-13.71q.3-8.85.29-12,0-10.84.42-23.56t.72-20.12q.28-7.42.28-15.71a65.56,65.56,0,0,0-1-13,43.94,43.94,0,0,0-3-9.13,15.33,15.33,0,0,0-5.85-6.86,33.1,33.1,0,0,0-9.56-3.85q-15.14-3.42-38.55-3.71-53.1-.57-68.24,6.85a38.38,38.38,0,0,0-10.84,8.57q-5.14,6.27-1.43,6.85,17.13,2.56,24.26,12.27l1.72,3.43q2,3.7,4,13.13a131.76,131.76,0,0,1,2.56,20.84,222.25,222.25,0,0,1,0,35.69q-1.43,14.85-2.71,23.13A46.47,46.47,0,0,1,209.28,262a58.4,58.4,0,0,1-3.43,6.28,4.73,4.73,0,0,1-1.43,1.42,21.3,21.3,0,0,1-7.71,1.43q-4,0-9.7-4a67.73,67.73,0,0,1-11.85-11,146.43,146.43,0,0,1-13.85-19.56q-7.71-12.56-16-29.69l-4.56-8.28q-4.29-8-11.71-23.27t-13.13-29.55a18.8,18.8,0,0,0-6.85-9.13l-1.43-.86a19.6,19.6,0,0,0-4.57-2.43,30.18,30.18,0,0,0-6.57-1.85l-78.22.56q-12,0-16.28,5.43L.86,139.19A9.28,9.28,0,0,0,0,143.76a22.76,22.76,0,0,0,1.71,7.71Q18.84,191.73,39,229.13t35,60.24q14.85,22.85,30.27,43.11t20.41,26q5,5.71,7.85,8.56l7.14,6.86a170.15,170.15,0,0,0,20.13,16.41,341.5,341.5,0,0,0,29.41,18.85,159.5,159.5,0,0,0,37.54,15.13A129.88,129.88,0,0,0,268.38,429h32.83q10-.86,15.14-6.28l1.13-1.43a18.76,18.76,0,0,0,2.14-5.28,28.93,28.93,0,0,0,1-7.85A94.51,94.51,0,0,1,322.47,386q2.14-9.86,4.86-14.85a36.38,36.38,0,0,1,6.14-8.42,25.11,25.11,0,0,1,4.86-4.14,18.83,18.83,0,0,1,2.28-1q6.84-2.28,16.13,4.43a95.11,95.11,0,0,1,17.42,16.56q8.13,9.86,19.55,22.13t20,18.27l5.71,3.43a69.65,69.65,0,0,0,14.85,6.28q9.12,2.85,16,1.43L523.33,429q10.84,0,16.84-3.58t7.14-7.85a22,22,0,0,0,.15-9.71A36.28,36.28,0,0,0,545.45,400.3Z" transform="translate(0 -117.75)"/></svg>