<svg xmlns="http://www.w3.org/2000/svg" width="25" height="25" viewBox="0 0 25 25">
  <defs>
    <style>
      .cls-1 {
        fill: #fff;
        fill-rule: evenodd;
      }
    </style>
  </defs>
  <path id="instag" class="cls-1" d="M985.218,3328.2H971.525a5.672,5.672,0,0,1-5.665-5.67v-13.68a5.672,5.672,0,0,1,5.665-5.67h13.693a5.674,5.674,0,0,1,5.666,5.67v13.68A5.674,5.674,0,0,1,985.218,3328.2Zm-13.693-22.53a3.184,3.184,0,0,0-3.175,3.18v13.68a3.184,3.184,0,0,0,3.175,3.18h13.693a3.182,3.182,0,0,0,3.173-3.18v-13.68a3.182,3.182,0,0,0-3.173-3.18H971.525Zm6.847,16.56a6.465,6.465,0,1,1,6.467-6.47A6.474,6.474,0,0,1,978.372,3322.23Zm0-10.44a3.975,3.975,0,1,0,3.977,3.97A3.977,3.977,0,0,0,978.372,3311.79Zm6.714-4.08a1.64,1.64,0,1,0,1.644,1.64A1.636,1.636,0,0,0,985.086,3307.71Z" transform="translate(-965.875 -3303.19)"/>
</svg>
