<svg xmlns="http://www.w3.org/2000/svg" width="100.594" height="96.5" viewBox="0 0 100.594 96.5">
  <defs>
    <style>
      .cls-1 {
        fill: #fff;
        fill-rule: evenodd;
      }
    </style>
  </defs>
  <path id="logo" class="cls-1" d="M901.352,288.58c-0.295-1.7,3.637-3.339,7.9-4.567,9.673-2.79,15.913-2.79,25.586,0,4.26,1.228,8.192,2.871,7.9,4.567-0.21,1.2-5.587,1.431-11.186,1.367-6.189-.071-12.82-0.071-19.008,0-5.6.064-10.976-.164-11.186-1.367h0Zm12.207-10.9c-5.686,1.31-7.554-9.851-8.314-14.223-1.443-8.3-1.644-12.038.655-20.495,4.331-15.927,27.953-15.927,32.284,0,2.3,8.457,2.1,12.192.655,20.495-0.76,4.372-2.628,15.533-8.314,14.223-3.827-.881-13.139-0.881-16.966,0h0ZM898.377,236.6c-2.172.193-6.343-2.029-11.088-2.151-9.914-.255-14.894,8.9-15.506,17.877-0.58,8.507,7.055,20.4,12.267,26.618,3.46,4.126,7.131,8.434,7.169,8.565,0.829,2.878-2.366,10.494-.973,12.683l4.27,0.541c0.62-.674,1.032-4.51,1.158-5.8H948.41c0.125,1.294.538,5.13,1.158,5.8l4.27-.541c1.392-2.189-1.8-9.805-.973-12.683,0.038-.131,3.709-4.439,7.169-8.565,5.212-6.215,12.847-18.111,12.267-26.618-0.612-8.978-5.593-18.132-15.506-17.877-4.745.122-8.916,2.344-11.088,2.151-13.7-21.668-33.635-21.668-47.33,0h0Zm47.493,11.662c2.009,6.839-3.7,21.676-7.446,27.676-3.309,5.3,2.013,5.922,6.126,9.139,4.636,3.625,9.816-3.939,13.6-12.635,3.238-7.452,5.448-15.734,5.409-18.518-0.209-14.6-19.838-13-17.684-5.662h0Zm-47.657,0c-2.008,6.839,3.7,21.676,7.447,27.676,3.309,5.3-2.013,5.922-6.126,9.139-4.636,3.625-9.816-3.939-13.6-12.635-3.238-7.452-5.448-15.734-5.409-18.518,0.209-14.6,19.838-13,17.683-5.662h0Zm-3.884-24a3.878,3.878,0,1,1-3.816,3.877,3.846,3.846,0,0,1,3.816-3.877h0Zm55.427,0a3.878,3.878,0,1,1-3.816,3.877,3.846,3.846,0,0,1,3.816-3.877h0Zm-27.714-20a6.328,6.328,0,1,1-6.226,6.328,6.277,6.277,0,0,1,6.226-6.328h0Z" transform="translate(-871.75 -204.25)"/>
</svg>
